<?xml version="1.0" encoding="UTF-8" standalone="no"?>
<!-- Created with Inkscape (http://www.inkscape.org/) -->

<svg
   version="1.1"
   id="svg2"
   width="799.59918"
   height="321.40518"
   viewBox="0 0 799.59918 321.40518"
   sodipodi:docname="high_innovation.svg"
   inkscape:version="1.1 (c4e8f9ed74, 2021-05-24)"
   xmlns:inkscape="http://www.inkscape.org/namespaces/inkscape"
   xmlns:sodipodi="http://sodipodi.sourceforge.net/DTD/sodipodi-0.dtd"
   xmlns="http://www.w3.org/2000/svg"
   xmlns:svg="http://www.w3.org/2000/svg">
  <defs
     id="defs6" />
  <sodipodi:namedview
     id="namedview4"
     pagecolor="#ffffff"
     bordercolor="#666666"
     borderopacity="1.0"
     inkscape:pageshadow="2"
     inkscape:pageopacity="0.0"
     inkscape:pagecheckerboard="0"
     showgrid="false"
     fit-margin-top="0"
     fit-margin-left="0"
     fit-margin-right="0"
     fit-margin-bottom="0"
     inkscape:zoom="0.62469649"
     inkscape:cx="235.31427"
     inkscape:cy="236.11466"
     inkscape:window-width="1920"
     inkscape:window-height="1080"
     inkscape:window-x="0"
     inkscape:window-y="0"
     inkscape:window-maximized="1"
     inkscape:current-layer="g8" />
  <g
     inkscape:groupmode="layer"
     inkscape:label="Image"
     id="g8"
     transform="translate(-84.44273,474.51821)">
    <path
       id="path48"
       style="fill:#000000"
       d="M 35.583984,9.4355469 C 23.452289,10.17879 13.0716,22.458646 15.857422,34.857422 18.765671,47.801092 32.89004,55.414506 44.78125,50.447266 64.00365,42.417606 61.300472,14.450672 40.857422,9.8574219 39.086168,9.4594469 37.317084,9.3293693 35.583984,9.4355469 Z M 72,53 V 87.5 122 H 61.5 51 V 96 c 0,-14.3 -0.240806,-26 -0.535156,-26 -0.29435,0 -1.53185,0.649139 -2.75,1.443359 -7.32623,4.77667 -18.029915,3.671764 -25.152344,-2.597656 L 18,64.830078 V 144.41406 224 H 34.5 51 v -35 -35 h 10.392578 c 8.55457,0 10.50038,0.28004 11,1.58203 0.33384,0.86998 0.613094,22.13248 0.621094,47.25 0.0246,77.43085 2.206516,97.58962 12.191406,112.66406 8.33266,12.58003 27.355452,17.41609 56.939452,14.47461 5.69577,-0.56632 14.29297,-1.73769 19.10547,-2.60351 L 170,325.79297 V 274.89648 224 H 147.5 125 v 15.5 15.5 h 6 6 v 21.98047 21.98047 l -2.53711,0.63672 c -1.39505,0.35014 -5.24048,0.44228 -8.54687,0.20312 -5.01145,-0.3625 -6.50377,-0.92759 -8.96875,-3.39258 -5.13338,-5.13337 -5.90989,-11.93226 -5.92969,-51.93359 -0.0245,-49.34113 1.49701,-58.4824 10.48242,-62.97266 3.40605,-1.7021 6.00458,-1.99908 17.5,-2 7.425,-6e-4 17.4375,0.37602 22.25,0.83789 l 8.75,0.83985 v -14.55078 -14.55274 l -3.75,-1.00195 c -9.53786,-2.54981 -28.95453,-4.28194 -41.25,-3.67969 -6.875,0.33676 -13.9625,0.88725 -15.75,1.22266 L 106,149.22656 V 101.11328 53 H 89 Z m 454.51562,11.53125 c -10.14595,0.44188 -17.93281,3.436929 -21.56445,8.537109 -6.0575,8.50697 -8.56627,29.772311 -7.60156,64.431641 1.06929,38.41669 4.89396,48.84215 19.24023,52.44727 4.8623,1.22185 24.11457,0.64398 31.16016,-0.93555 L 553,187.83398 V 155.91797 124 h -13 -13 v 5.5 5.5 h 7.5 7.5 v 21.95508 21.95508 l -3.75,0.76172 c -6.82444,1.38607 -16.84162,0.75043 -20.33203,-1.28907 -7.31415,-4.27377 -8.84202,-12.68203 -8.88672,-48.9082 -0.0465,-37.690551 1.98671,-48.913245 9.42578,-52.021485 5.35738,-2.23846 16.91833,-2.752045 26.33985,-1.171875 l 8.29687,1.390625 -0.29687,-5.017578 c -0.34818,-5.89166 -0.58235,-6.009146 -15.41602,-7.697266 -3.83938,-0.436932 -7.48325,-0.573074 -10.86524,-0.425781 z M 370.5,64.75 c -29.52042,-0.39636 -34.25473,9.54891 -33.20312,69.75 0.52381,29.98665 1.54892,37.91689 5.91406,45.72852 1.2586,2.25232 3.48992,4.98168 4.95703,6.0664 5.82907,4.30977 18.8333,5.73989 33.33203,3.66406 3.85,-0.55121 7.7875,-1.24887 8.75,-1.54882 1.61875,-0.50447 1.75,-2.94093 1.75,-32.47852 V 124 h -13 -13 v 5.5 5.5 h 7.5 7.5 v 21.98047 21.98047 l -2.75,0.71679 c -4.7747,1.24406 -16.57596,0.80954 -19.71289,-0.72656 -8.3019,-4.0653 -9.93598,-12.5946 -9.86328,-51.45117 0.0902,-48.20095 1.84625,-52.025487 23.82617,-51.867188 6.05,0.0436 12.93441,0.550184 15.29883,1.126954 l 4.29883,1.048828 -0.29883,-5.154297 L 391.5,67.5 l -5,-1.300781 C 383.75,65.483649 376.55,64.8312 370.5,64.75 Z m 297,1.179688 -8.44727,0.285156 L 650.60352,66.5 644.35547,97 c -3.43683,16.775 -9.13734,44.5625 -12.66602,61.75 L 625.27539,190 h 5.84375 c 5.23586,0 5.89832,-0.23405 6.375,-2.25 C 638.13944,185.02098 644,155.82887 644,155.34375 644,155.15456 650.6783,155 658.8418,155 h 14.84375 l 3.38867,16.56445 c 1.86333,9.11026 3.66332,17.00993 4,17.55469 0.33669,0.54477 3.07702,0.85307 6.08984,0.68555 L 692.64062,189.5 680.07031,127.71484 Z M 239,66 v 62 62 h 6 6 V 161.5 133 h 16.5 16.5 v 28.5 28.5 h 6 6 V 128 66 h -6 -6 V 93.5 121 H 267.5 251 V 93.5 66 h -6 z m 73,0 v 62 62 h 5.5 5.5 V 128 66 h -5.5 z m 93,0 v 62 62 h 6 6 V 161.5 133 h 16.5 16.5 v 28.5 28.5 h 6 6 V 128 66 h -6 -6 V 93.5 121 H 433.5 417 V 93.5 66 h -6 z m 160,0 v 62 62 h 6 6 v -25.03516 -25.03515 l 10.15234,0.28515 10.1543,0.28516 6.56055,24.75 6.5625,24.75 h 6.11914 6.11914 l -7.29492,-26.12109 -7.29688,-26.1211 2.21289,-1.8457 c 1.21649,-1.01535 2.51467,-1.86061 2.88672,-1.87891 0.37205,-0.0183 1.86029,-2.45198 3.30664,-5.4082 3.23663,-6.61544 4.55226,-20.37378 3.43946,-35.964844 -0.87209,-12.21841 -3.06324,-18.173089 -8.05274,-21.880859 C 606.20535,66.570467 602.80011,66 583.35156,66 Z m 135,0 v 62.13477 62.13476 l 17.75,-0.55273 c 9.7625,-0.30401 19.53896,-1.08866 21.72656,-1.74414 5.71057,-1.71106 10.97521,-7.40022 12.95508,-14 2.20812,-7.36063 3.81087,-38.95821 3.04102,-59.97266 -1.63428,-44.61095 -4.36426,-48 -38.6543,-48 z m 68,0 v 62 62 H 791.5 815 V 184.5 179 H 797.5 780 V 155.5 132 h 15 15 v -5 -5 H 795 780 V 99.5 77 H 797.5 815 V 71.5 66 H 791.5 Z M 577,77 h 11.42383 c 10.76524,0 11.59701,0.146373 14.43359,2.533203 4.47229,3.76319 5.51563,8.202287 5.51563,23.466797 0,15.2645 -1.04334,19.70362 -5.51563,23.4668 C 600.02084,128.85363 599.18907,129 588.42383,129 H 577 v -26 z m 135,0 h 9.85156 c 15.24581,0 17.76326,1.504606 20.10156,12.009766 1.68821,7.58453 2.48828,50.772564 1.22461,66.107424 -1.7381,21.09211 -3.51014,23.15732 -20.36914,23.73437 L 712,179.2207 v -51.10937 z m -52.50977,5.15625 C 659.87314,82.53915 672,143.09589 672,144.625 c 0,0.20633 -5.85,0.375 -13,0.375 -7.15,0 -13,-0.35649 -13,-0.79297 0,-1.95376 11.95823,-61.499253 12.44922,-61.990233 0.30276,-0.30276 0.77159,-0.329987 1.04101,-0.06055 z M 242.24609,205.17969 c -2.45711,-0.34891 -3.85309,1.79595 -2.85742,4.39062 0.3614,0.9418 1.50514,1.44202 2.85742,1.25 C 243.89882,210.58562 244.5,209.83273 244.5,208 c 0,-1.83273 -0.60118,-2.58562 -2.25391,-2.82031 z m 374.70118,0.11328 c -0.55647,0.13976 -1.13108,0.46115 -1.66211,0.99219 -2.12414,2.12414 -0.90537,4.94216 1.96093,4.53515 1.45196,-0.20618 2.36804,-1.12226 2.57422,-2.57422 0.30526,-2.14972 -1.20364,-3.37242 -2.87304,-2.95312 z M 584.5,212 c -1.22222,0 -1.5,1.66667 -1.5,9 v 9 h -6 c -4.66667,0 -6,0.33333 -6,1.5 0,1.16474 1.326,1.5 5.93164,1.5 h 5.92969 l 0.33398,28.75 c 0.35982,31.00349 0.6853,33.02673 5.7461,35.7793 3.50636,1.90711 15.19314,1.98734 14.46875,0.0996 -0.36833,-0.95657 -1.78889,-1.24678 -4.7168,-0.95899 -5.31184,0.52211 -8.71522,-1.24498 -10.94141,-5.68359 -1.5364,-3.06332 -1.749,-6.79106 -1.75,-30.73633 L 586,233 h 8 c 6.44444,0 8,-0.29167 8,-1.5 0,-1.20833 -1.55556,-1.5 -8,-1.5 h -8 v -9 c 0,-7.33333 -0.27778,-9 -1.5,-9 z m 146.36133,16.95312 c -3.49574,0.0846 -7.08102,0.87892 -10.36133,2.42969 -5.33264,2.52101 -9.00509,5.96332 -12.39453,11.61719 l -2.09766,3.5 -0.004,-8.25 c -0.003,-6.66501 -0.29209,-8.25 -1.50391,-8.25 -1.30392,0 -1.5,4.44444 -1.5,34 0,29.55556 0.19608,34 1.5,34 1.28969,0 1.5,-3.21199 1.5,-22.91211 v -22.91406 l 3.25781,-6.29102 c 5.57438,-10.76825 15.17019,-15.88133 25.97657,-13.84179 6.43705,1.2149 9.25297,3.28199 11.96679,8.79101 2.18956,4.44478 2.31585,5.91879 2.64649,30.91797 0.19433,14.6932 0.74466,26.25 1.25,26.25 0.51383,0 0.90234,-11.14895 0.90234,-25.875 0,-28.75038 -0.53354,-31.98498 -6.24805,-37.88086 -3.48843,-3.59916 -9.06439,-5.43198 -14.89062,-5.29102 z M 789.99609,229 c -7.53346,0 -13.95552,2.32969 -18.04297,6.54688 -2.94685,3.04039 -3.40832,4.24052 -3.75976,9.75976 -0.36271,5.69629 -0.14267,6.60075 2.32812,9.53711 3.62715,4.31062 7.98621,6.40177 19.97852,9.58203 11.0374,2.92702 16.57202,6.00354 19.53516,10.86328 6.87553,11.27633 -6.49124,23.5006 -23.26563,21.27539 -10.25325,-1.36014 -16.79468,-5.85274 -18.26367,-12.54101 C 768.14057,282.36027 767.19412,281 766.40234,281 c -1.06365,0 -1.26845,0.71815 -0.78125,2.75 1.65044,6.88319 5.77171,11.19375 13.26368,13.87109 4.43572,1.58515 17.23652,1.75031 22.49218,0.29102 8.86071,-2.46028 14.59255,-11.64106 12.6543,-20.26758 -1.67511,-7.45538 -8.17844,-11.85645 -23.1582,-15.67187 -15.57971,-3.96823 -21.87364,-9.41535 -20.51953,-17.75977 0.66708,-4.1107 4.78602,-8.87663 9.36523,-10.83594 4.71289,-2.01651 16.89389,-1.73669 21.82227,0.50196 4.79835,2.17959 9.03117,6.90004 9.95312,11.09765 0.82981,3.77808 2.50695,3.9612 2.50195,0.27344 -0.004,-3.11054 -3.08062,-8.65249 -6.32421,-11.39062 C 804.52891,231.20618 796.5016,229 789.99609,229 Z m -254.13476,0.0156 c -9.10365,0.47058 -18.06925,4.65166 -21.76172,12.2793 -2.44833,5.05759 -2.62685,6.7051 -0.72461,6.7051 0.75625,0 1.63262,-1.28812 1.94727,-2.86133 0.80334,-4.01673 4.97149,-8.61779 10.01757,-11.06055 3.25378,-1.57513 6.21213,-2.07499 12.22657,-2.0625 9.16445,0.019 14.35257,2.25796 18.08789,7.80079 2.3112,3.42959 3.74734,11.19655 3.17773,17.18359 l -0.33203,3.5 -15,0.53711 c -12.82641,0.45993 -15.76234,0.8774 -20.25781,2.87695 -15.62093,6.94808 -17.48426,25.65587 -3.27149,32.83594 5.51237,2.78476 16.29288,3.06189 23.50782,0.60352 2.9672,-1.01103 6.77879,-3.5213 9.86914,-6.5 2.76911,-2.66907 5.15031,-4.85352 5.29296,-4.85352 0.14266,0 0.39365,2.58308 0.5586,5.74023 0.2459,4.70679 0.64269,5.80544 2.19726,6.10157 1.51882,0.28931 1.73147,-0.007 1.07422,-1.49024 -0.45124,-1.01828 -1.07802,-13.55156 -1.39453,-27.85156 -0.52748,-23.83159 -0.7481,-26.29111 -2.63086,-29.49609 -4.23995,-7.21761 -13.48033,-10.45886 -22.58398,-9.98829 z m -181.86328,0.1543 c -8.74223,0.494 -15.06006,4.18414 -19.99805,11.67971 l -3.5,5.3125 -0.29102,-8.08008 C 330.04923,233.63744 329.48673,230 328.95898,230 328.36505,230 328,242.95533 328,264 c 0,20.38548 0.37388,34 0.93359,34 0.54217,0 1.06618,-9.74674 1.25,-23.25 0.30176,-22.16809 0.42575,-23.4594 2.67383,-27.75 5.3512,-10.21308 12.99822,-15.36072 22.7207,-15.29492 9.45432,0.064 14.53216,3.56173 16.93946,11.66797 C 373.65297,247.19633 374,254.16679 374,273.18164 374,294.57586 374.20696,298 375.5,298 c 1.29053,0 1.5,-3.26238 1.5,-23.36328 0,-12.84993 -0.45817,-25.77684 -1.01758,-28.72656 -2.24536,-11.83976 -9.59954,-17.44004 -21.98437,-16.74024 z m 309.76757,0.0117 c -1.49607,-0.0862 -3.04433,-0.0722 -4.64843,0.043 -14.93552,1.07218 -24.78714,11.31981 -27.18946,28.2832 -2.62309,18.52242 5.26795,35.22134 18.95704,40.11328 6.10618,2.18211 16.85551,1.71395 22.65429,-0.98632 2.82726,-1.31655 6.86198,-4.41952 9.19532,-7.07032 6.00176,-6.81837 7.76562,-12.74318 7.76562,-26.08593 0,-10.44376 -0.17378,-11.37431 -3.29297,-17.70899 -5.14518,-10.44924 -12.96888,-15.98455 -23.44141,-16.58789 z m -242.95507,0.0215 c -1.51928,-0.0998 -3.08468,-0.094 -4.69336,0.0215 -8.01496,0.57537 -13.41198,3.14421 -18.54883,8.83008 -6.04519,6.69131 -7.90591,11.92655 -8.37695,23.5664 -0.76775,18.97213 5.53245,30.7629 19.26171,36.05274 5.4684,2.10696 16.43302,1.59451 22.04688,-1.03125 6.4364,-3.01048 11.09137,-7.75227 14.37695,-14.64258 2.3789,-4.98889 2.62305,-6.61514 2.62305,-17.5 0,-11.14289 -0.20746,-12.45094 -2.91211,-18.30859 -4.78954,-10.37305 -13.14243,-16.28992 -23.77734,-16.98829 z M 289.42578,229.5 c -7.22715,0 -8.59053,0.31584 -13,3.01758 -3.04211,1.86395 -6.26435,5.05111 -8.42578,8.33203 l -3.5,5.3125 -0.29102,-8.08008 C 264.04923,233.63744 263.48673,230 262.95898,230 262.36505,230 262,242.95533 262,264 c 0,22 0.35294,34 1,34 0.63612,0 1,-7.94103 1,-21.82227 0,-26.36612 0.57998,-28.79047 8.91406,-37.27539 4.69399,-4.77894 6.42916,-5.86317 10.86914,-6.79101 5.78001,-1.20787 12.91872,-0.17255 16.95313,2.45898 1.23042,0.80257 3.25542,3.36391 4.5,5.69336 2.16117,4.04505 2.27787,5.43841 2.58594,30.98633 0.28027,23.24267 0.52362,26.75 1.85742,26.75 1.35084,0 1.48943,-3.15041 1.15234,-26.25 -0.376,-25.76644 -0.43097,-26.35227 -2.97851,-31.83789 C 304.09695,231.82309 299.98638,229.5 289.42578,229.5 Z m 163.61133,0.37695 c -1.50175,-0.38613 1.3959,8.13883 10.9707,32.85547 14.01698,36.1838 13.6163,35.26758 15.38672,35.26758 0.81246,0 6.25127,-12.65682 14.07422,-32.75 7.01288,-18.0125 12.97476,-33.3125 13.24805,-34 0.27329,-0.6875 -0.14705,-1.25 -0.93555,-1.25 -0.95389,0 -5.5606,10.55392 -13.76563,31.54102 -6.78231,17.34803 -12.67431,31.18553 -13.09374,30.75 C 478.50246,291.85548 472.91516,278 466.50586,261.5 c -6.40929,-16.5 -12.06235,-30.42026 -12.5625,-30.93359 -0.38747,-0.39768 -0.69171,-0.63429 -0.90625,-0.68946 z M 242,230 c -0.64706,0 -1,12 -1,34 0,22 0.35294,34 1,34 0.64706,0 1,-12 1,-34 0,-22 -0.35294,-34 -1,-34 z m 375.5,0 c -1.30392,0 -1.5,4.44444 -1.5,34 0,29.55556 0.19608,34 1.5,34 1.30392,0 1.5,-4.44444 1.5,-34 0,-29.55556 -0.19608,-34 -1.5,-34 z m -199.2168,2.02148 c 11.76557,-0.0381 20.3896,6.15608 24.73633,17.76563 2.55161,6.815 2.70661,20.73551 0.3125,28.14844 -1.99409,6.17432 -8.03615,13.36258 -13.63086,16.21679 -5.09752,2.60056 -14.01617,3.32428 -18.81836,1.52735 C 397.58325,290.70311 391.76047,281.11992 391.63672,264 c -0.0604,-8.35365 0.2654,-10.22401 2.70117,-15.5 5.35007,-11.58851 12.40129,-16.44112 23.94531,-16.47852 z m 242.76953,0 c 12.25686,-0.0411 22.00909,7.50636 25.58204,19.79688 2.25529,7.75791 1.51353,21.95876 -1.49805,28.68164 -5.71957,12.76805 -19.29776,19.2116 -31.84375,15.11133 -6.71733,-2.19535 -11.84421,-6.95546 -15.50781,-14.39649 -3.01607,-6.12588 -3.28516,-7.45085 -3.28516,-16.19336 0,-11.72381 1.99051,-18.02507 7.76562,-24.58593 5.39909,-6.13368 10.42721,-8.38607 18.78711,-8.41407 z M 558.5,263.5 l 0.29297,7.83789 c 0.26015,6.94358 -0.004,8.34468 -2.31641,12.29102 -5.82188,9.93428 -20.62068,15.71824 -31.68554,12.38281 -9.35203,-2.81911 -14.40161,-13.0604 -10.32618,-20.94141 4.23531,-8.19019 12.93437,-11.41606 31.03516,-11.50586 z"
       transform="translate(69.041926,-483.91832)" />
  </g>
</svg>
