<svg width="81" height="35" viewBox="0 0 81 35" fill="none" xmlns="http://www.w3.org/2000/svg">
<path d="M2.62259 1.03955C0.925039 1.82157 1.0967 4.32974 2.88962 4.92102C4.91141 5.5886 6.50406 2.98506 4.97817 1.49732C4.32013 0.858353 3.4046 0.677154 2.62259 1.03955V1.03955ZM6.86646 8.24936V11.5396H4.9591V6.47552L4.70161 6.65672C3.81468 7.27661 2.68934 7.13356 1.9264 6.30386L1.62122 5.97007L1.6403 13.6853L1.66891 21.4101H4.91141L4.94002 18.0913L4.9591 14.7821H6.83784L6.94275 20.7616C7.04765 27.094 7.11441 27.8856 7.54357 29.0491C8.15392 30.6894 9.12667 31.3665 11.1485 31.5573C12.455 31.6812 14.5245 31.5096 15.9073 31.1663L16.3079 31.0709V21.2671H11.8256V24.3188H12.97V28.515H12.3024C10.9005 28.515 10.7956 28.2861 10.6526 25.1772C10.5381 22.5641 10.6716 19.0545 10.9101 18.2534C11.2057 17.2807 11.7016 17.109 13.9046 17.1949C14.7248 17.233 15.6021 17.2807 15.8596 17.3188L16.3079 17.3856V15.936C16.3079 14.2385 16.4605 14.4197 14.8201 14.1526C13.6471 13.9619 11.2629 13.9237 10.6144 14.0859L10.2043 14.1908L10.1853 9.59405L10.1566 5.00685L8.51632 4.97824L6.86646 4.95917V8.24936ZM33.7602 6.29432C32.4346 6.75209 32.0436 8.0777 32.0436 12.1594C32.0436 16.3366 32.4536 17.7289 33.8174 18.1295C34.3991 18.2916 36.1635 18.2821 36.9073 18.1009L37.4318 17.9769L37.4605 14.8488L37.4795 11.7303H34.9046V12.8747H36.3351V14.9251C36.3351 17.3093 36.4305 17.1186 35.2384 17.1186C34.2561 17.1186 33.9223 16.9755 33.6648 16.451C33.1498 15.3924 33.1498 9.20304 33.6553 8.04909C33.9414 7.41012 34.1989 7.29568 35.3719 7.29568C35.9346 7.29568 36.6308 7.33383 36.9359 7.37198L37.4795 7.44827V6.40876L36.8215 6.25617C35.8869 6.04636 34.4278 6.0559 33.7602 6.29432V6.29432ZM49.0953 6.24664C48.1893 6.54228 47.7125 7.32429 47.4836 8.87879C47.331 9.89922 47.3215 14.4769 47.4741 15.4496C47.7125 17.0423 48.1321 17.7575 49 18.0913C49.5436 18.3011 51.0027 18.3202 52.0517 18.1295L52.7384 18.0055V11.7303H50.1635V12.8747H51.594V17.0518L50.9741 17.1186C49.7057 17.2616 49.0858 16.9755 48.8188 16.1554C48.6566 15.6499 48.5803 10.09 48.7234 9.04091C48.9237 7.55318 49.2098 7.29568 50.688 7.29568C51.2125 7.29568 51.8896 7.33383 52.1948 7.37198L52.7384 7.44827V6.92375C52.7384 6.39922 52.7384 6.39922 52.3855 6.29432C51.7752 6.10358 49.6199 6.08451 49.0953 6.24664V6.24664ZM22.7643 6.25617C22.7261 6.29432 22.6975 8.98369 22.6975 12.2262V18.1199H24.0327V12.684H27.0844V18.1199H28.3242V6.19895H27.0844V11.5396H24.0327L24.0136 8.88833L23.985 6.24664L23.4128 6.21803C23.0885 6.19895 22.8024 6.21803 22.7643 6.25617V6.25617ZM29.6594 12.1594V18.1199H30.8991V6.19895H29.6594V12.1594ZM38.5286 12.1594V18.1199H39.7684V12.684H42.8201V18.1199H44.1553L44.1362 12.1785L44.1076 6.24664H42.8678L42.8392 8.88833L42.8201 11.5396H39.7684V6.19895H38.5286V12.1594ZM53.7874 12.1594V18.1199H55.1226V13.4469H56.906L57.5163 15.7548L58.1362 18.0723L58.7752 18.1009C59.128 18.1199 59.4141 18.1009 59.4141 18.0627C59.4141 18.0341 59.109 16.9183 58.737 15.5831L58.0695 13.1703L58.4509 12.827C59.0708 12.2643 59.1757 11.8161 59.1757 9.72756C59.1757 8.0777 59.1566 7.93465 58.9468 7.45781C58.47 6.39922 57.9073 6.19895 55.485 6.19895H53.7874V12.1594ZM57.4305 7.57225C57.8596 7.84882 57.9359 8.20168 57.9359 9.87061C57.9359 12.0831 57.8406 12.2167 56.1526 12.2834L55.1226 12.3311V7.31476L56.1526 7.36244C56.906 7.39105 57.2397 7.44827 57.4305 7.57225V7.57225ZM61.9891 6.24664C61.9891 6.26571 61.455 8.9074 60.797 12.1118C60.1389 15.3257 59.6049 17.9864 59.6049 18.0341C59.6049 18.0818 59.8814 18.1199 60.2152 18.1199H60.8351L60.9305 17.6145C60.9877 17.3475 61.1308 16.6227 61.2547 16.0218L61.4741 14.9251H64.2207L64.44 16.0218C64.564 16.6227 64.707 17.3475 64.7643 17.6145L64.8596 18.1199H65.4795C65.8229 18.1199 66.0899 18.0818 66.0899 18.0246C66.0899 17.9387 63.8773 6.94282 63.7534 6.40876C63.7057 6.20849 63.658 6.19895 62.8474 6.19895C62.3705 6.19895 61.9891 6.21803 61.9891 6.24664V6.24664ZM63.4577 10.8338C63.7534 12.3693 63.9918 13.6376 63.9918 13.6758C63.9918 13.7616 61.703 13.7425 61.703 13.6567C61.6934 13.4088 62.8092 7.93465 62.8569 7.99187C62.8855 8.03002 63.1621 9.30794 63.4577 10.8338V10.8338ZM66.7288 6.26571C66.6907 6.29432 66.6621 8.98369 66.6621 12.2262V18.139L68.5504 18.1009C70.658 18.0723 70.9346 17.996 71.44 17.357C71.9931 16.6703 72.0504 16.1554 72.0504 12.2548C72.0504 8.46871 72.0027 7.93465 71.564 7.19078C71.1158 6.40876 70.4291 6.19895 68.2833 6.19895C67.4632 6.19895 66.7575 6.22756 66.7288 6.26571V6.26571ZM70.1716 7.52457C70.7438 7.82974 70.8964 9.0886 70.8297 12.9224C70.782 15.8693 70.7152 16.327 70.3147 16.7085C70.1049 16.8992 69.9714 16.9278 69.0368 16.9564L67.9972 16.9946V7.31476L68.9891 7.36244C69.5231 7.39105 70.0667 7.46734 70.1716 7.52457V7.52457ZM73.1471 12.1594V18.1199H77.7248V16.9755H74.4823V12.684H77.3433V11.5396H74.4823V7.34337H77.7248V6.19895H73.1471V12.1594ZM22.8501 19.6363C22.5354 19.9796 23.0218 20.4278 23.346 20.1036C23.4986 19.951 23.4891 19.7889 23.3079 19.6077C23.1171 19.4074 23.0504 19.4169 22.8501 19.6363V19.6363ZM58.613 19.6649C58.3555 20.0368 58.7847 20.4278 59.109 20.1036C59.2806 19.9319 59.2425 19.6649 59.0422 19.5505C58.7942 19.4169 58.7752 19.4265 58.613 19.6649V19.6649ZM55.5708 20.1799C55.5327 20.218 55.5041 20.609 55.5041 21.0382V21.8297L54.9605 21.8584C54.4836 21.887 54.4073 21.9156 54.4073 22.0777C54.4073 22.2398 54.4836 22.2684 54.9414 22.297L55.485 22.3257L55.5231 24.9673C55.5517 27.1703 55.5803 27.6567 55.7139 27.8951C56 28.4197 56.2288 28.5532 56.9441 28.5913C57.564 28.6295 57.6021 28.6199 57.6021 28.4292C57.6021 28.248 57.5449 28.2289 57.1253 28.2289C56.5531 28.2289 56.2288 28.0859 56.0858 27.7807C56.019 27.6281 55.9809 26.6458 55.9809 24.9387V22.3161H56.6962C57.3923 22.3161 57.4114 22.3066 57.4114 22.0777C57.4114 21.8488 57.3923 21.8393 56.6962 21.8393H55.9904L55.9618 21.0096C55.9427 20.342 55.9046 20.1703 55.7902 20.1417C55.7043 20.1322 55.609 20.1417 55.5708 20.1799V20.1799ZM26.9032 21.8584C26.4359 21.9919 25.8256 22.4306 25.549 22.8311L25.3201 23.1744L25.2724 22.5259C25.2343 22.0396 25.1866 21.887 25.0817 21.887C24.9577 21.887 24.9387 22.3257 24.9101 25.1962C24.891 28.4673 24.891 28.515 25.0817 28.515C25.2629 28.515 25.2724 28.4578 25.2724 26.293V24.0614L25.5681 23.4701C26.0354 22.5259 26.8937 22.03 27.8378 22.1635C28.391 22.2398 28.8011 22.4878 29.0395 22.8883C29.2207 23.203 29.2302 23.4129 29.2588 25.8638C29.2874 28.4197 29.297 28.515 29.4782 28.515C29.6498 28.515 29.6594 28.4292 29.6594 26.0545C29.6594 23.1744 29.6021 22.8311 29.0013 22.2875C28.4387 21.7821 27.6948 21.6295 26.9032 21.8584V21.8584ZM33.1594 21.8774C32.6158 22.0777 32.1675 22.4115 31.8719 22.8311L31.6144 23.2126L31.5667 22.545C31.5286 22.0491 31.4809 21.887 31.376 21.887C31.252 21.887 31.2329 22.3257 31.2043 25.1962C31.1853 28.4387 31.1853 28.515 31.3665 28.515C31.5476 28.515 31.5572 28.4292 31.5858 26.2453C31.6144 24.1281 31.6239 23.9564 31.8242 23.5464C32.3011 22.5927 32.9305 22.1826 33.9223 22.1731C34.6948 22.1731 35 22.3257 35.3338 22.8979C35.5054 23.1935 35.5245 23.4415 35.5722 25.8447C35.6199 28.2766 35.6294 28.4673 35.7915 28.496C35.9536 28.5341 35.9632 28.3911 35.9346 25.8257L35.906 23.1077L35.6199 22.6499C35.4482 22.3733 35.1907 22.1158 34.9809 22.0014C34.5136 21.763 33.6267 21.7058 33.1594 21.8774V21.8774ZM39.2438 21.8297C38.7765 21.9537 38.2139 22.278 37.8896 22.6213C37.079 23.4605 36.7738 25.1485 37.1839 26.4932C37.8038 28.5436 40.1689 29.2875 41.7234 27.9237C42.4959 27.2371 42.8964 26.0736 42.7915 24.8148C42.6866 23.5082 42.1049 22.5355 41.1512 22.0777C40.6076 21.8011 39.7493 21.6962 39.2438 21.8297V21.8297ZM41.0654 22.4592C42 23.0028 42.391 23.8515 42.3814 25.2725C42.3719 26.5695 41.9618 27.4278 41.113 27.9237C40.7316 28.1431 40.5694 28.1812 39.9114 28.1812C39.2438 28.1812 39.0912 28.1431 38.6907 27.9142C37.8038 27.3897 37.3269 26.2739 37.4128 24.9387C37.4986 23.5082 38.1376 22.5927 39.2915 22.2112C39.7111 22.0682 40.6267 22.2017 41.0654 22.4592ZM50.297 21.9156C49.515 22.1921 49.019 22.6594 48.8474 23.2984C48.7615 23.5845 48.7711 23.6703 48.876 23.7085C49.0763 23.7848 49.2098 23.6703 49.2098 23.4128C49.2098 23.1172 49.6199 22.6404 50.1062 22.3924C50.6021 22.1254 51.861 22.0968 52.3092 22.3352C52.9768 22.6976 53.2152 23.184 53.2152 24.1949V24.7957H52.0899C50.7929 24.7957 50.0109 24.9578 49.4577 25.3488C48.8188 25.7875 48.6853 26.0545 48.6853 26.8366C48.6853 27.4374 48.7139 27.5709 48.9427 27.8665C49.3433 28.3911 49.7915 28.5627 50.7357 28.5627C51.6798 28.5627 52.1853 28.372 52.8242 27.7998C53.2057 27.4469 53.2152 27.4469 53.2152 27.6853C53.2152 27.8093 53.2438 28.0573 53.2724 28.2194C53.3201 28.4578 53.3869 28.515 53.5681 28.515C53.7588 28.515 53.797 28.4864 53.7302 28.3434C53.6921 28.2575 53.6253 27.0654 53.5967 25.7017C53.5585 23.5273 53.5299 23.1744 53.3678 22.8597C52.9005 21.9251 51.5177 21.496 50.297 21.9156V21.9156ZM53.2152 25.9687C53.2152 26.703 53.1961 26.7984 52.9387 27.1513C52.4237 27.8665 51.6607 28.2289 50.6689 28.2289C49.6771 28.2289 49.019 27.6567 49.019 26.7793C49.019 26.2548 49.3051 25.8543 49.8869 25.5491C50.4496 25.263 50.8692 25.1962 52.0994 25.1867L53.2152 25.1772V25.9687V25.9687ZM62.1417 21.8965C61.8079 22.0014 61.5122 22.2017 61.1212 22.5927C60.6539 23.06 60.5395 23.2507 60.3678 23.8325C60.0722 24.7957 60.1199 26.1308 60.4823 26.9033C61.1117 28.2766 62.5899 28.9346 64.0013 28.4673C64.6975 28.2289 65.4128 27.5137 65.7084 26.7507C66.0041 25.9973 66.0327 24.6145 65.7752 23.8325C65.2506 22.2589 63.6675 21.4101 62.1417 21.8965V21.8965ZM64.2397 22.4592C64.7166 22.7453 65.0504 23.1363 65.3365 23.8039C65.613 24.4142 65.6321 25.7398 65.3746 26.5028C65.1553 27.1703 64.3923 27.9714 63.8487 28.124C62.4182 28.515 61.1021 27.7712 60.6921 26.3406C60.4536 25.5396 60.549 24.233 60.8733 23.6036C61.2833 22.8311 61.7125 22.4306 62.3705 22.2303C62.8855 22.0777 63.7724 22.1826 64.2397 22.4592V22.4592ZM68.9223 21.887C68.4169 22.0777 68.0258 22.3733 67.7111 22.812L67.4346 23.1935L67.406 22.5355C67.3869 22.0109 67.3487 21.887 67.2152 21.8584C67.0531 21.8297 67.0436 22.0396 67.0436 25.1772C67.0436 28.3148 67.0531 28.5246 67.2152 28.496C67.3583 28.4673 67.3773 28.2575 67.425 26.1308C67.4727 23.8134 67.4727 23.7943 67.7302 23.3652C68.0545 22.8025 68.3215 22.5641 68.8937 22.3066C69.7711 21.9251 70.782 22.1921 71.1635 22.9169C71.3733 23.2984 71.3828 23.4319 71.4114 25.9115C71.44 28.4101 71.4496 28.515 71.6308 28.515C71.8024 28.515 71.812 28.4197 71.812 26.1022C71.812 23.3079 71.7357 22.8883 71.1539 22.3066C70.6199 21.763 69.7139 21.6009 68.9223 21.887V21.887ZM74.3869 21.9346C73.2139 22.3352 72.7752 23.5559 73.5 24.4142C73.8242 24.8052 74.1294 24.9483 75.207 25.2248C76.7902 25.6445 77.3433 26.0641 77.3433 26.8652C77.3433 27.9238 75.8937 28.5246 74.4155 28.0859C73.8719 27.9237 73.4618 27.5232 73.3664 27.075C73.2997 26.7412 72.9564 26.6744 72.9564 26.9987C72.9564 27.8761 74.0626 28.6104 75.3692 28.6104C76.7902 28.6104 77.7248 27.9237 77.7248 26.8747C77.7248 25.8352 77.1335 25.3488 75.3406 24.8911C74.0054 24.5477 73.5286 24.1758 73.5286 23.4605C73.5286 22.7548 74.1008 22.278 75.0831 22.1635C76.1321 22.0396 77.1526 22.6022 77.3147 23.3747C77.3528 23.5654 77.4291 23.6513 77.5436 23.6513C77.9346 23.6513 77.658 22.8216 77.1239 22.3447C76.4659 21.763 75.3501 21.6009 74.3869 21.9346V21.9346ZM22.955 21.8965C22.9169 21.9346 22.8883 23.4415 22.8883 25.2439C22.8883 28.4578 22.8883 28.515 23.079 28.515C23.2697 28.515 23.2697 28.4673 23.2506 25.2058C23.222 22.0586 23.1934 21.6676 22.955 21.8965V21.8965ZM43.0109 21.906C43.0109 21.9537 43.5735 23.451 44.2697 25.2534C45.3569 28.0668 45.5572 28.515 45.7098 28.496C45.8624 28.4769 46.158 27.7998 47.1594 25.2248C47.8556 23.4415 48.3896 21.9442 48.3515 21.8965C48.3038 21.8488 48.2084 21.8393 48.1417 21.8679C48.0749 21.8965 47.5027 23.2507 46.8733 24.8815C46.158 26.7412 45.7002 27.7902 45.6621 27.7044C45.6144 27.6376 45.1185 26.3693 44.5367 24.9006C43.9645 23.4224 43.4496 22.1349 43.3923 22.03C43.297 21.8488 43.0109 21.763 43.0109 21.906ZM58.718 21.906C58.6798 21.9346 58.6512 23.4415 58.6512 25.2439C58.6512 28.4483 58.6512 28.515 58.8419 28.515C59.0327 28.515 59.0327 28.4483 59.0327 25.1772C59.0327 22.4592 59.0136 21.8393 58.9087 21.8393C58.8324 21.8393 58.7466 21.8679 58.718 21.906V21.906Z" fill="white"/>
</svg>
