<svg width="12" height="12" viewBox="0 0 12 12" fill="none" xmlns="http://www.w3.org/2000/svg">
<path fill-rule="evenodd" clip-rule="evenodd" d="M1.05021 1.05025C1.23775 0.862716 1.4921 0.757359 1.75732 0.757359C2.02254 0.757359 2.27689 0.862716 2.46442 1.05025L5.99996 4.58579L9.53549 1.05025C9.72303 0.862716 9.97738 0.757359 10.2426 0.757359C10.5078 0.757359 10.7622 0.862716 10.9497 1.05025C11.1372 1.23779 11.2426 1.49214 11.2426 1.75736C11.2426 2.02258 11.1372 2.27693 10.9497 2.46447L7.41417 6L10.9497 9.53553C11.1372 9.72307 11.2426 9.97742 11.2426 10.2426C11.2426 10.5079 11.1372 10.7622 10.9497 10.9497C10.7622 11.1373 10.5078 11.2426 10.2426 11.2426C9.97738 11.2426 9.72303 11.1373 9.53549 10.9497L5.99996 7.41421L2.46442 10.9497C2.27689 11.1373 2.02254 11.2426 1.75732 11.2426C1.4921 11.2426 1.23775 11.1373 1.05021 10.9497C0.862675 10.7622 0.757318 10.5079 0.757318 10.2426C0.757318 9.97742 0.862675 9.72307 1.05021 9.53553L4.58575 6L1.05021 2.46447C0.862675 2.27693 0.757318 2.02258 0.757318 1.75736C0.757318 1.49214 0.862675 1.23779 1.05021 1.05025Z" fill="#000222"/>
</svg>
