<svg version="1.0" xmlns="http://www.w3.org/2000/svg" width="1126.667" height="489.333" viewBox="0 0 845 367"><path d="M27.5 10.9c-17.8 8.2-16 34.5 2.8 40.7 21.2 7 37.9-20.3 21.9-35.9-6.9-6.7-16.5-8.6-24.7-4.8zM72 86.5V121H52V67.9l-2.7 1.9c-9.3 6.5-21.1 5-29.1-3.7L17 62.6l.2 80.9.3 81h34l.3-34.8.2-34.7h19.7l1.1 62.7c1.1 66.4 1.8 74.7 6.3 86.9 6.4 17.2 16.6 24.3 37.8 26.3 13.7 1.3 35.4-.5 49.9-4.1l4.2-1V223h-47v32h12v44h-7c-14.7 0-15.8-2.4-17.3-35-1.2-27.4.2-64.2 2.7-72.6 3.1-10.2 8.3-12 31.4-11.1 8.6.4 17.8.9 20.5 1.3l4.7.7v-15.2c0-17.8 1.6-15.9-15.6-18.7-12.3-2-37.3-2.4-44.1-.7l-4.3 1.1-.2-48.2-.3-48.1-17.2-.3L72 52v34.5zM354 66c-13.9 4.8-18 18.7-18 61.5 0 43.8 4.3 58.4 18.6 62.6 6.1 1.7 24.6 1.6 32.4-.3l5.5-1.3.3-32.8.2-32.7h-27v12h15v21.5c0 25 1 23-11.5 23-10.3 0-13.8-1.5-16.5-7-5.4-11.1-5.4-76-.1-88.1 3-6.7 5.7-7.9 18-7.9 5.9 0 13.2.4 16.4.8l5.7.8V67.2l-6.9-1.6c-9.8-2.2-25.1-2.1-32.1.4zm160.8-.5c-9.5 3.1-14.5 11.3-16.9 27.6-1.6 10.7-1.7 58.7-.1 68.9 2.5 16.7 6.9 24.2 16 27.7 5.7 2.2 21 2.4 32 .4l7.2-1.3V123h-27v12h15v43.8l-6.5.7c-13.3 1.5-19.8-1.5-22.6-10.1-1.7-5.3-2.5-63.6-1-74.6 2.1-15.6 5.1-18.3 20.6-18.3 5.5 0 12.6.4 15.8.8l5.7.8v-5.5c0-5.5 0-5.5-3.7-6.6-6.4-2-29-2.2-34.5-.5zm-276.1.1c-.4.4-.7 28.6-.7 62.6V190h14v-57h32v57h13V65h-13v56h-32l-.2-27.8-.3-27.7-6-.3c-3.4-.2-6.4 0-6.8.4zm72.3 61.9V190h13V65h-13v62.5zm93 0V190h13v-57h32v57h14l-.2-62.3-.3-62.2h-13l-.3 27.7-.2 27.8h-32V65h-13v62.5zm160 0V190h14v-49h18.7l6.4 24.2 6.5 24.3 6.7.3c3.7.2 6.7 0 6.7-.4 0-.3-3.2-12-7.1-26l-7-25.3 4-3.6c6.5-5.9 7.6-10.6 7.6-32.5 0-17.3-.2-18.8-2.4-23.8-5-11.1-10.9-13.2-36.3-13.2H564v62.5zm38.2-48.1c4.5 2.9 5.3 6.6 5.3 24.1 0 23.2-1 24.6-18.7 25.3l-10.8.5V76.7l10.8.5c7.9.3 11.4.9 13.4 2.2zM650 65.5c0 .2-5.6 27.9-12.5 61.5-6.9 33.7-12.5 61.6-12.5 62.1s2.9.9 6.4.9h6.5l1-5.3c.6-2.8 2.1-10.4 3.4-16.7l2.3-11.5h28.8l2.3 11.5c1.3 6.3 2.8 13.9 3.4 16.7l1 5.3h6.5c3.6 0 6.4-.4 6.4-1 0-.9-23.2-116.2-24.5-121.8-.5-2.1-1-2.2-9.5-2.2-5 0-9 .2-9 .5zm15.4 48.1c3.1 16.1 5.6 29.4 5.6 29.8 0 .9-24 .7-24-.2-.1-2.6 11.6-60 12.1-59.4.3.4 3.2 13.8 6.3 29.8zm34.3-47.9c-.4.3-.7 28.5-.7 62.5v62l19.8-.4c22.1-.3 25-1.1 30.3-7.8 5.8-7.2 6.4-12.6 6.4-53.5 0-39.7-.5-45.3-5.1-53.1C745.7 67.2 738.5 65 716 65c-8.6 0-16 .3-16.3.7zm36.1 13.2c6 3.2 7.6 16.4 6.9 56.6-.5 30.9-1.2 35.7-5.4 39.7-2.2 2-3.6 2.3-13.4 2.6l-10.9.4V76.7l10.4.5c5.6.3 11.3 1.1 12.4 1.7zm31.2 48.6V190h48v-12h-34v-45h30v-12h-30V77h34V65h-48v62.5zm-527.4 78.4c-3.3 3.6 1.8 8.3 5.2 4.9 1.6-1.6 1.5-3.3-.4-5.2-2-2.1-2.7-2-4.8.3zm375 .3c-2.7 3.9 1.8 8 5.2 4.6 1.8-1.8 1.4-4.6-.7-5.8-2.6-1.4-2.8-1.3-4.5 1.2zm-31.9 5.4c-.4.4-.7 4.5-.7 9v8.3l-5.7.3c-5 .3-5.8.6-5.8 2.3 0 1.7.8 2 5.6 2.3l5.7.3.4 27.7c.3 23.1.6 28.2 2 30.7 3 5.5 5.4 6.9 12.9 7.3 6.5.4 6.9.3 6.9-1.7 0-1.9-.6-2.1-5-2.1-6 0-9.4-1.5-10.9-4.7-.7-1.6-1.1-11.9-1.1-29.8V234h7.5c7.3 0 7.5-.1 7.5-2.5s-.2-2.5-7.5-2.5h-7.4l-.3-8.7c-.2-7-.6-8.8-1.8-9.1-.9-.1-1.9 0-2.3.4zm-300.6 17.6c-4.9 1.4-11.3 6-14.2 10.2l-2.4 3.6-.5-6.8c-.4-5.1-.9-6.7-2-6.7-1.3 0-1.5 4.6-1.8 34.7-.2 34.3-.2 34.8 1.8 34.8 1.9 0 2-.6 2-23.3v-23.4l3.1-6.2c4.9-9.9 13.9-15.1 23.8-13.7 5.8.8 10.1 3.4 12.6 7.6 1.9 3.3 2 5.5 2.3 31.2.3 26.8.4 27.8 2.3 27.8 1.8 0 1.9-.9 1.9-25.8 0-30.2-.6-33.8-6.9-39.5-5.9-5.3-13.7-6.9-22-4.5zm65.6.2c-5.7 2.1-10.4 5.6-13.5 10l-2.7 4-.5-7c-.4-5.2-.9-6.9-2-6.9-1.3 0-1.5 4.6-1.8 34.7-.2 34-.2 34.8 1.7 34.8s2-.9 2.3-23.8c.3-22.2.4-24 2.5-28.3 5-10 11.6-14.3 22-14.4 8.1 0 11.3 1.6 14.8 7.6 1.8 3.1 2 5.7 2.5 30.9.5 25.5.6 27.5 2.3 27.8 1.7.4 1.8-1.1 1.5-28l-.3-28.5-3-4.8c-1.8-2.9-4.5-5.6-6.7-6.8-4.9-2.5-14.2-3.1-19.1-1.3zm63.8-.5c-4.9 1.3-10.8 4.7-14.2 8.3-8.5 8.8-11.7 26.5-7.4 40.6 6.5 21.5 31.3 29.3 47.6 15 8.1-7.2 12.3-19.4 11.2-32.6-1.1-13.7-7.2-23.9-17.2-28.7-5.7-2.9-14.7-4-20-2.6zm19.1 6.6c9.8 5.7 13.9 14.6 13.8 29.5-.1 13.6-4.4 22.6-13.3 27.8-4 2.3-5.7 2.7-12.6 2.7-7 0-8.6-.4-12.8-2.8-9.3-5.5-14.3-17.2-13.4-31.2.9-15 7.6-24.6 19.7-28.6 4.4-1.5 14-.1 18.6 2.6zm96.8-5.7c-8.2 2.9-13.4 7.8-15.2 14.5-.9 3-.8 3.9.3 4.3 2.1.8 3.5-.4 3.5-3.1 0-3.1 4.3-8.1 9.4-10.7 5.2-2.8 18.4-3.1 23.1-.6 7 3.8 9.5 8.9 9.5 19.5v6.3h-11.8c-13.6 0-21.8 1.7-27.6 5.8-6.7 4.6-8.1 7.4-8.1 15.6 0 6.3.3 7.7 2.7 10.8 4.2 5.5 8.9 7.3 18.8 7.3s15.2-2 21.9-8c4-3.7 4.1-3.7 4.1-1.2 0 1.3.3 3.9.6 5.6.5 2.5 1.2 3.1 3.1 3.1 2 0 2.4-.3 1.7-1.8-.4-.9-1.1-13.4-1.4-27.7-.4-22.8-.7-26.5-2.4-29.8-4.9-9.8-19.4-14.3-32.2-9.9zm30.6 42.5c0 7.7-.2 8.7-2.9 12.4-5.4 7.5-13.4 11.3-23.8 11.3s-17.3-6-17.3-15.2c0-5.5 3-9.7 9.1-12.9 5.9-3 10.3-3.7 23.2-3.8l11.7-.1v8.3zm93.6-42.7c-3.5 1.1-6.6 3.2-10.7 7.3-4.9 4.9-6.1 6.9-7.9 13-3.1 10.1-2.6 24.1 1.2 32.2 6.6 14.4 22.1 21.3 36.9 16.4 7.3-2.5 14.8-10 17.9-18 3.1-7.9 3.4-22.4.7-30.6-5.5-16.5-22.1-25.4-38.1-20.3zm22 5.9c5 3 8.5 7.1 11.5 14.1 2.9 6.4 3.1 20.3.4 28.3-2.3 7-10.3 15.4-16 17-15 4.1-28.8-3.7-33.1-18.7-2.5-8.4-1.5-22.1 1.9-28.7 4.3-8.1 8.8-12.3 15.7-14.4 5.4-1.6 14.7-.5 19.6 2.4zm49.1-6c-5.3 2-9.4 5.1-12.7 9.7l-2.9 4-.3-6.9c-.2-5.5-.6-6.8-2-7.1-1.7-.3-1.8 1.9-1.8 34.8s.1 35.1 1.8 34.8c1.5-.3 1.7-2.5 2.2-24.8.5-24.3.5-24.5 3.2-29 3.4-5.9 6.2-8.4 12.2-11.1 9.2-4 19.8-1.2 23.8 6.4 2.2 4 2.3 5.4 2.6 31.4.3 26.2.4 27.3 2.3 27.3 1.8 0 1.9-1 1.9-25.3 0-29.3-.8-33.7-6.9-39.8-5.6-5.7-15.1-7.4-23.4-4.4zm57.3.5c-12.3 4.2-16.9 17-9.3 26 3.4 4.1 6.6 5.6 17.9 8.5 16.6 4.4 22.4 8.8 22.4 17.2 0 11.1-15.2 17.4-30.7 12.8-5.7-1.7-10-5.9-11-10.6-.7-3.5-4.3-4.2-4.3-.8 0 9.2 11.6 16.9 25.3 16.9 14.9 0 24.7-7.2 24.7-18.2 0-10.9-6.2-16-25-20.8-14-3.6-19-7.5-19-15 0-7.4 6-12.4 16.3-13.6 11-1.3 21.7 4.6 23.4 12.7.4 2 1.2 2.9 2.4 2.9 4.1 0 1.2-8.7-4.4-13.7-6.9-6.1-18.6-7.8-28.7-4.3zm-539.3-.4c-.4.4-.7 16.2-.7 35.1 0 33.7 0 34.3 2 34.3s2-.5 1.8-34.7c-.3-33-.6-37.1-3.1-34.7zm210.3.1c0 .5 5.9 16.2 13.2 35.1 11.4 29.5 13.5 34.2 15.1 34 1.6-.2 4.7-7.3 15.2-34.3 7.3-18.7 12.9-34.4 12.5-34.9-.5-.5-1.5-.6-2.2-.3-.7.3-6.7 14.5-13.3 31.6-7.5 19.5-12.3 30.5-12.7 29.6-.5-.7-5.7-14-11.8-29.4-6-15.5-11.4-29-12-30.1-1-1.9-4-2.8-4-1.3zm164.7 0c-.4.3-.7 16.1-.7 35 0 33.6 0 34.3 2 34.3s2-.7 2-35c0-28.5-.2-35-1.3-35-.8 0-1.7.3-2 .7z"/></svg>