<svg width="81" height="35" fill="none" xmlns="http://www.w3.org/2000/svg"><path d="M2.623 1.04c-1.698.782-1.526 3.29.267 3.881 2.021.668 3.614-1.936 2.088-3.424C4.32.858 3.405.677 2.623 1.04zm4.243 7.21v3.29H4.96V6.476l-.257.18c-.887.62-2.013.478-2.776-.352l-.305-.334.02 7.715.028 7.725h3.24l.029-3.319.02-3.309h1.878l.105 5.98c.105 6.332.171 7.124.6 8.287.61 1.64 1.584 2.317 3.606 2.508 1.306.124 3.376-.047 4.758-.39l.4-.096v-9.804h-4.481v3.052h1.144v4.196h-.668c-1.402 0-1.506-.229-1.65-3.338-.114-2.613.02-6.122.258-6.924.296-.972.792-1.144 2.995-1.058.82.038 1.697.086 1.955.124l.448.067v-1.45c0-1.697.152-1.516-1.488-1.783-1.173-.191-3.557-.23-4.206-.067l-.41.105-.019-4.597-.028-4.587-1.64-.029-1.65-.019v3.29zM33.76 6.293c-1.325.458-1.716 1.784-1.716 5.865 0 4.178.41 5.57 1.773 5.97.582.163 2.346.153 3.09-.028l.525-.124.029-3.128.019-3.119h-2.575v1.145h1.43v2.05c0 2.384.096 2.194-1.097 2.194-.982 0-1.316-.143-1.573-.668-.515-1.059-.515-7.248-.01-8.402.286-.639.544-.753 1.717-.753.563 0 1.259.038 1.564.076l.544.076v-1.04l-.658-.152c-.935-.21-2.394-.2-3.062.038zm15.335-.047c-.906.295-1.383 1.077-1.611 2.632-.153 1.02-.163 5.598-.01 6.57.239 1.593.658 2.309 1.526 2.642.544.21 2.003.23 3.052.038l.686-.123V11.73h-2.575v1.145h1.431v4.177l-.62.067c-1.268.143-1.888-.143-2.155-.964-.162-.505-.239-6.065-.096-7.114.2-1.488.487-1.745 1.965-1.745.524 0 1.202.038 1.507.076l.543.076v-.524c0-.525 0-.525-.352-.63-.61-.19-2.766-.21-3.29-.047zm-26.33.01c-.039.037-.067 2.727-.067 5.97v5.893h1.335v-5.436h3.051v5.436h1.24V6.199h-1.24v5.34h-3.051l-.02-2.65-.028-2.642-.572-.029c-.325-.02-.61 0-.649.038zm6.894 5.902v5.96h1.24V6.2h-1.24v5.96zm8.87 0v5.96h1.24v-5.435h3.051v5.436h1.335l-.019-5.942-.028-5.931h-1.24l-.029 2.641-.019 2.652h-3.052v-5.34h-1.24v5.96zm15.258 0v5.96h1.336v-4.672h1.783l.61 2.308.62 2.317.64.029c.352.019.638 0 .638-.038 0-.029-.305-1.145-.677-2.48l-.668-2.413.382-.343c.62-.563.725-1.01.725-3.1 0-1.65-.02-1.792-.23-2.27C58.47 6.4 57.908 6.2 55.486 6.2h-1.698v5.96zm3.644-4.587c.429.277.505.63.505 2.299 0 2.212-.095 2.346-1.783 2.412l-1.03.048V7.315l1.03.047c.753.029 1.087.086 1.278.21zm4.558-1.325c0 .019-.534 2.66-1.192 5.865-.658 3.214-1.192 5.874-1.192 5.922 0 .048.276.086.61.086h.62l.096-.506c.057-.267.2-.991.324-1.592l.22-1.097h2.746l.219 1.097c.124.6.267 1.326.324 1.593l.096.505h.62c.343 0 .61-.038.61-.095 0-.086-2.213-11.082-2.337-11.616-.047-.2-.095-.21-.906-.21-.477 0-.858.019-.858.048zm1.469 4.587c.295 1.535.534 2.804.534 2.842 0 .086-2.289.066-2.289-.02-.01-.247 1.106-5.721 1.154-5.664.029.038.305 1.316.6 2.842zm3.27-4.568c-.037.028-.066 2.718-.066 5.96v5.913l1.888-.038c2.108-.029 2.385-.105 2.89-.744.553-.687.61-1.202.61-5.102 0-3.786-.047-4.32-.486-5.064-.448-.782-1.135-.992-3.28-.992-.82 0-1.527.029-1.555.067zm3.444 1.259c.572.305.724 1.564.658 5.397-.048 2.947-.115 3.405-.515 3.787-.21.19-.344.219-1.278.247l-1.04.039v-9.68l.992.047c.534.029 1.078.105 1.183.163zm2.975 4.634v5.96h4.578v-1.143h-3.243v-4.292h2.861V11.54h-2.86V7.343h3.242V6.2h-4.578v5.96zM22.85 19.636c-.315.344.172.792.496.468.153-.153.143-.315-.038-.496-.19-.2-.258-.191-.458.028zm35.763.029c-.258.372.172.763.496.439a.346.346 0 00-.067-.553c-.248-.134-.267-.124-.429.114zm-3.042.515c-.038.038-.067.429-.067.858v.792l-.543.028c-.477.029-.554.058-.554.22s.077.19.534.219l.544.029.038 2.641c.029 2.203.057 2.69.19 2.928.287.525.516.658 1.231.696.62.038.658.029.658-.162 0-.181-.057-.2-.477-.2-.572 0-.896-.143-1.04-.448-.066-.153-.104-1.135-.104-2.842v-2.623h.715c.696 0 .715-.01.715-.238 0-.23-.019-.239-.715-.239h-.706l-.028-.83c-.02-.667-.057-.839-.172-.867-.086-.01-.181 0-.22.038zm-28.668 1.678c-.467.134-1.077.573-1.354.973l-.229.343-.048-.648c-.038-.486-.085-.639-.19-.639-.124 0-.143.439-.172 3.31-.019 3.27-.019 3.318.172 3.318.18 0 .19-.057.19-2.222v-2.232l.296-.59c.467-.945 1.326-1.441 2.27-1.308.553.077.963.325 1.201.725.182.315.191.525.22 2.976.028 2.556.038 2.651.22 2.651.17 0 .18-.086.18-2.46 0-2.88-.057-3.224-.658-3.767-.562-.506-1.306-.659-2.098-.43zm6.256.02c-.543.2-.992.534-1.287.953l-.258.382-.047-.668c-.038-.496-.086-.658-.191-.658-.124 0-.143.439-.172 3.31-.019 3.242-.019 3.318.162 3.318.182 0 .191-.086.22-2.27.028-2.117.038-2.289.238-2.699.477-.953 1.107-1.363 2.098-1.373.773 0 1.078.153 1.412.725.171.296.19.544.238 2.947.048 2.432.057 2.622.22 2.651.162.038.171-.105.143-2.67l-.029-2.718-.286-.458c-.172-.277-.43-.534-.64-.649-.466-.238-1.353-.295-1.82-.124zm6.085-.048c-.468.124-1.03.448-1.354.791-.811.84-1.116 2.527-.706 3.872.62 2.05 2.985 2.795 4.54 1.43.772-.686 1.172-1.85 1.068-3.108-.105-1.307-.687-2.28-1.64-2.737-.544-.277-1.403-.382-1.908-.248zm1.821.63c.935.543 1.326 1.392 1.316 2.813-.01 1.297-.42 2.155-1.268 2.65-.381.22-.544.258-1.202.258-.667 0-.82-.038-1.22-.267-.887-.524-1.364-1.64-1.278-2.975.086-1.43.725-2.346 1.879-2.728.42-.143 1.335-.01 1.773.248zm9.232-.544c-.782.276-1.278.743-1.45 1.382-.086.287-.076.372.029.41.2.077.334-.038.334-.295 0-.296.41-.773.896-1.02.496-.268 1.755-.296 2.203-.058.668.363.906.849.906 1.86v.6H52.09c-1.297 0-2.08.163-2.632.554-.64.439-.773.706-.773 1.488 0 .6.029.734.258 1.03.4.524.849.696 1.793.696s1.45-.191 2.088-.763c.382-.353.391-.353.391-.115 0 .124.029.372.057.534.048.239.115.296.296.296.19 0 .229-.029.162-.172-.038-.085-.105-1.278-.133-2.641-.038-2.175-.067-2.528-.23-2.842-.466-.935-1.85-1.364-3.07-.944zm2.918 4.053c0 .734-.019.83-.276 1.182-.515.715-1.278 1.078-2.27 1.078s-1.65-.572-1.65-1.45c0-.524.286-.925.868-1.23.563-.286.982-.353 2.212-.362l1.116-.01v.792zm8.927-4.073c-.334.105-.63.306-1.02.697-.468.467-.583.658-.754 1.24-.296.963-.248 2.298.114 3.07.63 1.374 2.108 2.032 3.52 1.564.696-.238 1.41-.953 1.706-1.716.296-.754.325-2.137.067-2.919-.524-1.573-2.108-2.422-3.633-1.936zm2.098.563c.477.286.81.677 1.097 1.345.276.61.295 1.936.038 2.699-.22.667-.983 1.468-1.526 1.621-1.43.391-2.747-.353-3.157-1.783-.238-.801-.143-2.108.181-2.737.41-.773.84-1.173 1.498-1.374.514-.152 1.401-.047 1.869.23zm4.682-.572c-.505.19-.896.486-1.21.925l-.277.381-.029-.658c-.02-.524-.057-.648-.19-.677-.163-.028-.172.182-.172 3.32 0 3.137.01 3.347.171 3.318.143-.029.162-.238.21-2.365.048-2.318.048-2.337.305-2.766.325-.563.591-.8 1.164-1.058.877-.382 1.888-.115 2.27.61.21.381.219.515.247 2.994.029 2.5.039 2.604.22 2.604.171 0 .181-.095.181-2.413 0-2.794-.076-3.214-.658-3.795-.534-.544-1.44-.706-2.232-.42zm5.465.048c-1.173.4-1.612 1.62-.887 2.48.324.39.63.533 1.707.81 1.583.42 2.136.84 2.136 1.64 0 1.059-1.45 1.66-2.928 1.22-.543-.161-.953-.562-1.049-1.01-.066-.334-.41-.4-.41-.076 0 .877 1.107 1.611 2.413 1.611 1.421 0 2.356-.686 2.356-1.735 0-1.04-.591-1.526-2.384-1.984-1.336-.343-1.812-.715-1.812-1.43 0-.706.572-1.183 1.554-1.297 1.05-.124 2.07.438 2.232 1.21.038.191.114.277.229.277.39 0 .114-.83-.42-1.306-.658-.582-1.774-.744-2.737-.41zm-51.432-.038c-.038.038-.067 1.545-.067 3.347 0 3.214 0 3.271.191 3.271.19 0 .19-.048.172-3.31-.029-3.146-.058-3.537-.296-3.308zm20.056.009c0 .048.563 1.545 1.259 3.347 1.087 2.814 1.287 3.262 1.44 3.243.152-.02.448-.696 1.45-3.271.696-1.784 1.23-3.28 1.192-3.329-.048-.047-.144-.057-.21-.028-.067.029-.64 1.383-1.269 3.014-.715 1.86-1.173 2.908-1.21 2.822-.049-.066-.544-1.335-1.126-2.803-.572-1.479-1.087-2.766-1.145-2.871-.095-.181-.381-.267-.381-.124zm15.707 0c-.038.029-.067 1.536-.067 3.338 0 3.204 0 3.271.19 3.271.192 0 .192-.067.192-3.338 0-2.718-.02-3.338-.124-3.338-.077 0-.162.029-.191.067z" fill="#fff"/></svg>