<svg width="8" height="8" viewBox="0 0 8 8" fill="none" xmlns="http://www.w3.org/2000/svg">
<path fill-rule="evenodd" clip-rule="evenodd" d="M7.53553 0.464489C7.72307 0.652025 7.82843 0.90638 7.82843 1.1716C7.82843 1.43681 7.72307 1.69117 7.53553 1.8787L5.41421 4.00002L7.53553 6.12134C7.72307 6.30888 7.82843 6.56323 7.82843 6.82845C7.82843 7.09367 7.72307 7.34802 7.53553 7.53556C7.348 7.72309 7.09364 7.82845 6.82843 7.82845C6.56321 7.82845 6.30886 7.72309 6.12132 7.53556L4 5.41424L1.87868 7.53556C1.69114 7.72309 1.43679 7.82845 1.17157 7.82845C0.906357 7.82845 0.652002 7.72309 0.464466 7.53556C0.27693 7.34802 0.171573 7.09367 0.171573 6.82845C0.171573 6.56323 0.27693 6.30888 0.464466 6.12134L2.58579 4.00002L0.464466 1.8787C0.27693 1.69117 0.171573 1.43681 0.171573 1.1716C0.171572 0.90638 0.27693 0.652025 0.464466 0.464489C0.652002 0.276953 0.906357 0.171596 1.17157 0.171596C1.43679 0.171596 1.69114 0.276953 1.87868 0.464489L4 2.58581L6.12132 0.464489C6.30886 0.276953 6.56321 0.171596 6.82843 0.171596C7.09364 0.171596 7.348 0.276953 7.53553 0.464489Z" fill="#888899"/>
</svg>
