<svg width="20" height="20" fill="none" xmlns="http://www.w3.org/2000/svg"><g opacity=".9" stroke="#F7F7F7" stroke-miterlimit="22.926" stroke-linecap="round"><path clip-rule="evenodd" d="M15.657 4.345A7.95 7.95 0 0010 2a7.95 7.95 0 00-5.657 2.345c-2.916 2.915-3.127 7.571-.53 10.727-.358.734-.78 1.223-1.26 1.457a.749.749 0 00-.409.78c.05.326.298.577.623.627.178.027.37.044.567.044.982 0 2.014-.338 2.876-.931A8.013 8.013 0 0010 18c2.139 0 4.146-.83 5.658-2.342A7.945 7.945 0 0018 10.003a7.953 7.953 0 00-2.343-5.658h0z" stroke-width="1.5" stroke-linejoin="round"/><path d="M6.274 10h7.453M6.274 7.812h7.453m-7.453 4.376h7.453"/></g></svg>