<svg width="20" height="20" fill="none" xmlns="http://www.w3.org/2000/svg"><path fill-rule="evenodd" clip-rule="evenodd" d="M3.125 3.625h13.75a.75.75 0 010 1.5H3.125a.75.75 0 010-1.5zm5 3.75a.75.75 0 01.75.75v5a.75.75 0 01-1.5 0v-5a.75.75 0 01.75-.75zm3.75 0a.75.75 0 01.75.75v5a.75.75 0 01-1.5 0v-5a.75.75 0 01.75-.75z" fill="#D95151"/><path fill-rule="evenodd" clip-rule="evenodd" d="M4.375 3.625a.75.75 0 01.75.75v11.75h9.75V4.375a.75.75 0 011.5 0V16.25A1.375 1.375 0 0115 17.625H5a1.375 1.375 0 01-1.375-1.375V4.375a.75.75 0 01.75-.75z" fill="#D95151"/><path fill-rule="evenodd" clip-rule="evenodd" d="M6.71 1.71a2 2 0 011.415-.585h3.75a2 2 0 012 2v1.25a.75.75 0 01-1.5 0v-1.25a.5.5 0 00-.5-.5h-3.75a.5.5 0 00-.5.5v1.25a.75.75 0 01-1.5 0v-1.25a2 2 0 01.586-1.414z" fill="#D95151"/></svg>