<svg width="20" height="20" fill="none" xmlns="http://www.w3.org/2000/svg"><path fill-rule="evenodd" clip-rule="evenodd" d="M13.342 2.59a1.75 1.75 0 012.475 0l1.711 1.711a1.75 1.75 0 010 2.475L6.19 18.114a.75.75 0 01-.53.22H2.535a.75.75 0 01-.75-.75v-3.125a.75.75 0 01.22-.53L13.343 2.59zm1.415 1.061a.25.25 0 00-.354 0L3.285 14.77v2.064h2.064L16.468 5.716a.25.25 0 000-.354l-1.711-1.71z" fill="#82B284"/><path fill-rule="evenodd" clip-rule="evenodd" d="M5.793 17.155l-2.828-2.828 1.06-1.06 2.829 2.828-1.06 1.06zm9.193-9.192l-2.829-2.828 1.06-1.061 2.83 2.828-1.061 1.061z" fill="#82B284"/></svg>