<svg width="20" height="20" fill="none" xmlns="http://www.w3.org/2000/svg"><path d="M17.177 7.54l1.52 1.457a1 1 0 01.24 1.069.92.92 0 01-.861.62h-1.29v7.757a.544.544 0 01-.53.557H3.744a.544.544 0 01-.53-.557v-7.757H1.925a.92.92 0 01-.86-.62 1 1 0 01.238-1.069l8.076-7.742a.886.886 0 011.244 0L13.5 4.5l-.042-1.794c0-.308.237-.557.53-.557h2.66c.292 0 .53.25.53.557v4.833z" stroke="#F7F7F7" stroke-width="1.5" stroke-linejoin="round"/><mask id="a" fill="#fff"><rect x="7.5" y="9.693" width="5" height="6.341" rx="1"/></mask><rect x="7.5" y="9.693" width="5" height="6.341" rx="1" stroke="#F7F7F7" stroke-width="2.6" mask="url(#a)"/></svg>