<svg width="20" height="20" fill="none" xmlns="http://www.w3.org/2000/svg"><g clip-path="url(#clip0_1569_265)" fill-rule="evenodd" clip-rule="evenodd" fill="#82B284"><path d="M17.513 3.29a.75.75 0 01.75.75v3.75a.75.75 0 01-.75.75h-3.75a.75.75 0 010-1.5h3v-3a.75.75 0 01.75-.75z"/><path d="M11.195 3.993A6.125 6.125 0 1014.33 14.33a.75.75 0 011.06 1.06 7.625 7.625 0 110-10.783l-.504.505.505-.505 2.651 2.652a.75.75 0 01-1.06 1.06L14.33 5.67a6.125 6.125 0 00-3.136-1.676z"/></g><defs><clipPath id="clip0_1569_265"><path fill="#fff" d="M0 0h20v20H0z"/></clipPath></defs></svg>