<svg width="20" height="20" viewBox="0 0 20 20" fill="none" xmlns="http://www.w3.org/2000/svg">
<path fill-rule="evenodd" clip-rule="evenodd" d="M3.875 3.875V16.125H16.125V7.18566L12.8143 3.875H3.875ZM12.778 3.83863L12.7777 3.83839L12.8661 3.75L12.7777 3.83839C12.7778 3.83847 12.7779 3.83855 12.778 3.83863ZM2.77773 2.77773C3.03559 2.51987 3.38533 2.375 3.75 2.375H12.8661C13.0467 2.375 13.2255 2.41057 13.3923 2.47967C13.5591 2.54877 13.7107 2.65005 13.8384 2.77773L17.2223 6.16161C17.3499 6.28929 17.4512 6.44087 17.5203 6.60769C17.5894 6.77452 17.625 6.95332 17.625 7.13388V16.25C17.625 16.6147 17.4801 16.9644 17.2223 17.2223C16.9644 17.4801 16.6147 17.625 16.25 17.625H3.75C3.38533 17.625 3.03559 17.4801 2.77773 17.2223C2.51987 16.9644 2.375 16.6147 2.375 16.25V3.75C2.375 3.38533 2.51987 3.03559 2.77773 2.77773Z" fill="#82B284"/>
<path fill-rule="evenodd" clip-rule="evenodd" d="M10.0005 10.7507C9.20658 10.7507 8.56299 11.3943 8.56299 12.1882C8.56299 12.9821 9.20658 13.6257 10.0005 13.6257C10.7944 13.6257 11.438 12.9821 11.438 12.1882C11.438 11.3943 10.7944 10.7507 10.0005 10.7507ZM7.06299 12.1882C7.06299 10.5659 8.37815 9.2507 10.0005 9.2507C11.6228 9.2507 12.938 10.5659 12.938 12.1882C12.938 13.8105 11.6228 15.1257 10.0005 15.1257C8.37815 15.1257 7.06299 13.8105 7.06299 12.1882Z" fill="#82B284"/>
<path fill-rule="evenodd" clip-rule="evenodd" d="M7.5 2.3757C7.91421 2.3757 8.25 2.71149 8.25 3.1257V6.7507H12.5C12.9142 6.7507 13.25 7.08649 13.25 7.5007C13.25 7.91492 12.9142 8.2507 12.5 8.2507H7.5C7.08579 8.2507 6.75 7.91492 6.75 7.5007V3.1257C6.75 2.71149 7.08579 2.3757 7.5 2.3757Z" fill="#82B284"/>
</svg>
