<svg width="30" height="31" viewBox="0 0 30 31" fill="none" xmlns="http://www.w3.org/2000/svg">
<path d="M15.0033 7.31877C10.7468 7.31877 7.31344 10.7578 7.31344 15.0213C7.31344 19.2849 10.7468 22.7239 15.0033 22.7239C19.2599 22.7239 22.6933 19.2849 22.6933 15.0213C22.6933 10.7578 19.2599 7.31877 15.0033 7.31877ZM15.0033 20.029C12.2527 20.029 10.0039 17.7832 10.0039 15.0213C10.0039 12.2594 12.246 10.0137 15.0033 10.0137C17.7607 10.0137 20.0028 12.2594 20.0028 15.0213C20.0028 17.7832 17.754 20.029 15.0033 20.029ZM24.8015 7.00369C24.8015 8.00254 23.9983 8.80029 23.0078 8.80029C22.0106 8.80029 21.2142 7.99584 21.2142 7.00369C21.2142 6.01154 22.0173 5.2071 23.0078 5.2071C23.9983 5.2071 24.8015 6.01154 24.8015 7.00369ZM29.8946 8.8271C29.7808 6.42047 29.232 4.28869 27.4718 2.53232C25.7184 0.775953 23.5901 0.22625 21.1874 0.105583C18.7111 -0.0351944 11.2889 -0.0351944 8.8126 0.105583C6.41662 0.219546 4.28834 0.76925 2.52817 2.52562C0.767987 4.28199 0.225878 6.41377 0.10541 8.8204C-0.0351366 11.3008 -0.0351366 18.7352 0.10541 21.2155C0.219186 23.6222 0.767987 25.7539 2.52817 27.5103C4.28834 29.2667 6.40993 29.8164 8.8126 29.9371C11.2889 30.0778 18.7111 30.0778 21.1874 29.9371C23.5901 29.8231 25.7184 29.2734 27.4718 27.5103C29.2253 25.7539 29.7741 23.6222 29.8946 21.2155C30.0351 18.7352 30.0351 11.3075 29.8946 8.8271ZM26.6955 23.8769C26.1735 25.1908 25.1629 26.2031 23.8444 26.7327C21.8701 27.517 17.1852 27.336 15.0033 27.336C12.8215 27.336 8.12995 27.5103 6.1623 26.7327C4.85053 26.2098 3.83993 25.1975 3.31121 23.8769C2.52817 21.8993 2.70887 17.2067 2.70887 15.0213C2.70887 12.8359 2.53486 8.13662 3.31121 6.16573C3.83324 4.8518 4.84384 3.83954 6.1623 3.30995C8.13664 2.52562 12.8215 2.70662 15.0033 2.70662C17.1852 2.70662 21.8767 2.53232 23.8444 3.30995C25.1562 3.83284 26.1668 4.8451 26.6955 6.16573C27.4785 8.14332 27.2978 12.8359 27.2978 15.0213C27.2978 17.2067 27.4785 21.906 26.6955 23.8769Z" fill="#FFF9E9" fill-opacity="0.75"/>
</svg>
