<svg width="30" height="22" viewBox="0 0 30 22" fill="none" xmlns="http://www.w3.org/2000/svg">
<path d="M29.3731 3.2967C29.0281 1.99905 28.0115 0.977055 26.7208 0.630227C24.3813 0 15 0 15 0C15 0 5.61879 0 3.27919 0.630227C1.98847 0.97711 0.971904 1.99905 0.626879 3.2967C0 5.64878 0 10.5562 0 10.5562C0 10.5562 0 15.4636 0.626879 17.8156C0.971904 19.1133 1.98847 20.0927 3.27919 20.4395C5.61879 21.0697 15 21.0697 15 21.0697C15 21.0697 24.3812 21.0697 26.7208 20.4395C28.0115 20.0927 29.0281 19.1133 29.3731 17.8156C30 15.4636 30 10.5562 30 10.5562C30 10.5562 30 5.64878 29.3731 3.2967ZM11.9318 15.0117V6.10063L19.7727 10.5563L11.9318 15.0117Z" fill="#FFF9E9" fill-opacity="0.75"/>
</svg>
