<svg width="20" height="18" fill="none" xmlns="http://www.w3.org/2000/svg"><path d="M17.5 10.035v5.632h.833v1.666H1.667v-1.666H2.5v-5.632A3.747 3.747 0 01.833 6.917c0-.69.187-1.354.528-1.92l2.26-3.914a.833.833 0 01.722-.416h11.315a.833.833 0 01.722.416l2.252 3.902a3.747 3.747 0 01-1.132 5.05zm-1.667.608a3.746 3.746 0 01-3.125-1.133 3.746 3.746 0 01-5.416.002 3.746 3.746 0 01-3.125 1.132v5.023h11.666v-5.023zM4.824 2.333L2.797 5.844a2.083 2.083 0 003.721 1.847c.28-.698 1.267-.698 1.547 0a2.083 2.083 0 003.87 0c.28-.698 1.267-.698 1.547 0a2.084 2.084 0 103.714-1.86l-2.021-3.498H4.825z" fill="#F7F7F7"/></svg>