<svg width="20" height="20" fill="none" xmlns="http://www.w3.org/2000/svg"><path clip-rule="evenodd" d="M17.355 8.361l-1.74-.339c-.067-.203-.158-.384-.226-.565l.995-1.469c.271-.384.203-.926-.113-1.265l-.95-.95a.992.992 0 00-1.265-.113l-1.469.995c-.18-.09-.384-.158-.565-.226l-.339-1.74c-.113-.475-.52-.814-.994-.814H9.333a.994.994 0 00-.972.791l-.339 1.74c-.203.068-.384.158-.565.226l-1.469-.994a.989.989 0 00-1.243.113l-.95.95a.992.992 0 00-.112 1.265l.994 1.469c-.09.18-.158.384-.226.565l-1.74.339c-.497.113-.836.52-.836.994v1.356c0 .475.339.882.791.972l1.74.34c.068.203.158.383.226.564l-.994 1.47c-.271.383-.204.926.113 1.265l.949.95a.992.992 0 001.265.112l1.47-.994c.18.09.384.158.564.226l.34 1.74a.97.97 0 00.971.791h1.379a.994.994 0 00.972-.791l.338-1.74a4.28 4.28 0 00.566-.226l1.468.994c.385.271.927.204 1.266-.113l.95-.95a.964.964 0 00.112-1.242l-.994-1.47c.09-.18.158-.383.226-.564l1.74-.34a.972.972 0 00.79-.971V9.333a.952.952 0 00-.767-.972h0z" stroke="#F7F7F7" stroke-width="1.5" stroke-linecap="round" stroke-linejoin="round"/><path clip-rule="evenodd" d="M10 7.641A2.368 2.368 0 007.64 10 2.368 2.368 0 0010 12.359 2.368 2.368 0 0012.358 10 2.368 2.368 0 0010 7.641z" stroke="#F7F7F7" stroke-width="1.5"/></svg>