<svg width="130" height="15" fill="none" xmlns="http://www.w3.org/2000/svg"><path d="M13.05 3H0v-.857c0-.144.014-.288.043-.429H13.05V3zM3.262 4.714H0V3.43h3.262v1.285zm0 1.715H0V5.143h3.262v1.286zm0 1.714H0V6.857h3.262v1.286zm0 1.714H0V8.571h3.262v1.286zm0 1.714H0v-1.285h3.262v1.285zm9.788 1.715H.043A2.07 2.07 0 010 12.857V12h13.05v1.286zm0-12H.167C.55.429 1.217 0 2.175 0H13.05v1.286zm0 13.714H2.175c-.957 0-1.626-.429-2.008-1.286H13.05V15zm0-8.571H5.437V5.143h7.613v1.286zm0 1.714H5.437V6.857h7.613v1.286zm0 1.714H9.787V8.571h3.263v1.286zm0 1.714H9.787v-1.285h3.263v1.285zM28.057 3H16.095v-.857c0-.144.014-.288.043-.429h11.919V3zm-8.7 1.714h-3.262V3.43h3.262v1.285zm8.7 1.715H16.095V5.143h11.962v1.286zm0 1.714H16.095V6.857h11.962v1.286zm-8.7 1.714h-3.262V8.571h3.262v1.286zm0 1.714h-3.262v-1.285h3.262v1.285zm8.7 1.715H16.138a2.07 2.07 0 01-.043-.429V12h11.962v1.286zm0-12H16.269C16.646.429 17.315 0 18.276 0h9.788l-.007 1.286zm0 13.714H18.27c-.957 0-1.627-.429-2.008-1.286h11.795V15zm8.134-13.714H32.06L31.102 0h4.133l.956 1.286zm0 12.428L35.235 15h-4.133l.957-1.286h4.133zM37.453 3H33.32l-.956-1.286h4.132L37.453 3zm0 9l-.957 1.286h-4.133L33.322 12h4.132zm6.329-8.571l-.935 1.285h-8.265l-.935-1.285h4.132l.935 1.285.937-1.285h4.131zm0 8.142h-4.13l-.936-1.285-.935 1.285h-4.133l.936-1.285h8.264l.934 1.285zm-1.261-6.428l-.957 1.286h-5.699l-.957-1.286h7.613zm0 4.714h-7.613l.957-1.286h5.699l.957 1.286zm-1.262-1.714h-5.09l.48-.643-.48-.643h5.09l-.478.643.478.643zm3.806-6.429L44.108 3h-4.132l.957-1.286h4.132zm0 11.572h-4.132L39.976 12h4.132l.957 1.286zM46.327 0l-.957 1.286h-4.133L42.194 0h4.133zm0 15h-4.133l-.957-1.286h4.133L46.327 15zm6.612-1.286L52.417 15h-3.698l.522-1.286h3.698zM53.635 12l-.522 1.286h-3.698L49.937 12h3.698zm10.005-.429H50.11l.522-1.285h12.484l.523 1.285zm-.697-1.714H50.807l.522-1.286h11.093l.521 1.286zm-7.22-3L55.2 8.143h-3.698l.529-1.286h3.69zm.696-1.714l-.522 1.286h-3.698l.522-1.286h3.698zm4.437-.429h-3.698l-.274-.707-.283.707h-3.697l.521-1.285h6.917l.514 1.285zM60.159 3h-6.568l.522-1.286h5.521L60.16 3zm-.695-1.714h-5.177L54.81 0h4.133l.522 1.286zm2.087 5.143h-3.697l-.522-1.286h3.698l.521 1.286zm.697 1.714h-3.691l-.522-1.286h3.698l.515 1.286zm2.087 5.143h-3.697L60.116 12h3.698l.521 1.286zM65.031 15h-3.697l-.522-1.286h3.698L65.03 15zM80.306 1.286H67.424V0h10.875c.957 0 1.626.429 2.007 1.286zM80.474 3h-13.05V1.714H80.43c.028.141.044.285.044.429V3zm-9.788 1.714h-3.262V3.43h3.262v1.285zm9.62.429C79.924 6 79.255 6.429 78.3 6.429H67.424V5.143h12.882zm0 3H67.424V6.857h10.875c.957 0 1.626.429 2.007 1.286zm-9.62 1.714h-3.262V8.571h3.262v1.286zm0 1.714h-3.262v-1.285h3.262v1.285zm9.788 1.286c0 .144-.016.288-.044.429H67.424V12h13.05v.857zm-.168.857C79.924 14.571 79.255 15 78.3 15H67.424v-1.286h12.882zm.168-9.428c0 .144-.016.287-.044.428h-3.22V3.43h3.264v.857zm0 5.571H77.21V8.571h3.22c.028.142.043.285.043.429v.857zm0 1.714H77.21v-1.285h3.263v1.285zm8.132-10.285h-4.132L83.517 0h4.133l.956 1.286zM89.868 3h-4.132l-.957-1.286h4.132L89.868 3zm6.333.429l-.936 1.285H87l-.935-1.285h4.132l.935 1.285.936-1.285H96.2zm-1.262 1.714l-.96 1.286H88.28l-.957-1.286h7.616zm-1.264 1.714l-.915 1.286h-3.262l-.913-1.286h5.09zm-.915 3h-3.262V8.571h3.262v1.286zm0 1.714h-3.262v-1.285h3.262v1.285zm0 1.715h-3.262V12h3.262v1.286zm0 1.714h-3.262v-1.286h3.262V15zm4.72-13.286L96.523 3h-4.132l.965-1.286h4.124zM98.742 0l-.957 1.286h-4.133L94.61 0h4.133zm16.094 1.286h-13.05V0h13.05v1.286zm0 1.714h-13.05V1.714h13.05V3zm-4.675 1.714h-3.263V3.43h3.263v1.285zm0 1.715h-3.263V5.143h3.263v1.286zm0 1.714h-3.263V6.857h3.263v1.286zm0 1.714h-3.263V8.571h3.263v1.286zm0 1.714h-3.263v-1.285h3.263v1.285zm0 1.715h-3.263V12h3.263v1.286zm0 1.714h-3.263v-1.286h3.263V15zm19.683-12h-11.962v-.857c0-.144.015-.288.043-.429h11.919V3zm-8.7 1.714h-3.262V3.43h3.262v1.285zm8.7 1.715h-11.962V5.143h11.962v1.286zm0 1.714h-11.962V6.857h11.962v1.286zm-8.7 1.714h-3.262V8.571h3.262v1.286zm0 1.714h-3.262v-1.285h3.262v1.285zm8.7 1.715h-11.919a2.203 2.203 0 01-.043-.429V12h11.962v1.286zm0-12h-11.788C118.431.429 119.099 0 120.057 0h9.787v1.286zm0 13.714h-9.787c-.958 0-1.626-.429-2.008-1.286h11.788l.007 1.286z" fill="#fff"/></svg>