<svg width="75" height="35" fill="none" xmlns="http://www.w3.org/2000/svg"><path d="M9.137 9.084c-2.885.655-5.463 2.618-6.853 5.223-.895 1.67-1.095 2.458-1.175 4.529-.067 1.563-.04 1.964.214 2.912.347 1.363.774 2.325 1.47 3.34 1.241 1.83 3.138 3.286 5.302 4.074 1.15.414 1.256.428 3.327.428 1.99 0 2.204-.027 3.206-.374l1.055-.374.348.4c.253.321.44.415.815.415.774 0 1.723-.16 1.723-.294 0-.054-.762-1.07-1.697-2.245l-1.71-2.137H13.92c-1.416 0-1.39-.094-.32 1.242.467.588.694.949.6 1.042-.066.067-.6.214-1.188.334-3.688.735-7.428-1.122-9.138-4.515-2.11-4.208-.454-9.284 3.74-11.382.642-.32 1.523-.868 1.95-1.202.442-.347 1.23-.842 1.764-1.109.521-.267.962-.507.962-.534 0-.134-2.23.013-3.153.227z" fill="#fff"/><path d="M14.347 9.672c-1.776.334-3.26.988-4.595 2.017-.962.748-2.03 1.924-1.95 2.15.066.161 11.702 14.749 12.276 15.377l.267.307.775-.44c2.338-1.323 3.968-3.274 4.89-5.852.467-1.336.587-4.181.24-5.638a10.687 10.687 0 00-4.408-6.345c-2.111-1.416-5.077-2.044-7.495-1.576zm4.355 2.19c2.538.829 4.569 2.873 5.49 5.504.268.735.308 1.136.308 2.605-.013 1.563-.04 1.83-.374 2.739a9.525 9.525 0 01-2.378 3.54c-.788.735-.815.748-1.055.508-.134-.134-2.538-3.1-5.33-6.586l-5.09-6.346.52-.467c.722-.641 1.778-1.203 2.967-1.563 1.322-.401 3.606-.374 4.942.067z" fill="#fff"/><path d="M15.63 12.53l-.468.094.641.374c1.457.855 2.82 2.578 3.54 4.475.308.802.348 1.096.361 2.699 0 1.603-.04 1.91-.347 2.765l-.334.975h2.07l.214-.708c.575-1.937.575-3.9-.013-5.945-.628-2.19-2.231-4.475-3.233-4.622-.988-.146-1.977-.187-2.431-.107zm16.364-2.19a3.84 3.84 0 01-.494.133c-.494.107-1.136.682-1.443 1.296-.227.428-.267.788-.267 2.164 0 1.643.12 2.218.561 2.779.521.641 1.75.975 2.819.775.614-.107.668-.094.988.28.361.428.935.548 1.056.214.04-.107-.054-.374-.227-.601l-.294-.401.307-.708c.2-.48.32-1.069.374-1.844.107-1.99-.374-3.326-1.376-3.793-.454-.228-1.723-.401-2.004-.294zm1.603 1.175c.561.441.735 1.015.735 2.445 0 1.51-.2 2.084-.828 2.471-.828.508-2.044.227-2.458-.547-.294-.588-.4-2.418-.187-3.313.227-.949.721-1.35 1.656-1.35.535 0 .802.08 1.082.294zm4.97-.935c-1.43 3.66-2.498 6.6-2.445 6.733.04.107.227.187.414.187.307 0 .401-.12.708-.802l.348-.814 1.656.04 1.657.04.294.734c.267.655.347.735.72.775.322.027.428-.013.428-.16 0-.12-.48-1.456-1.055-2.979-1.657-4.368-1.416-3.914-2.084-3.914-.334 0-.601.067-.641.16zm1.309 2.578c.334.882.601 1.644.601 1.697 0 .067-.574.107-1.269.107s-1.27-.04-1.27-.094c0-.147 1.243-3.38 1.283-3.34.027.027.321.762.655 1.63zm3.273-2.337v.4h1.803c1.15 0 1.804.054 1.804.134 0 .08-.842 1.296-1.87 2.712-1.564 2.137-1.87 2.631-1.844 2.965l.04.401h5.076v-.801l-1.897-.067-1.897-.067 1.87-2.592c1.497-2.097 1.858-2.671 1.858-3.045v-.441h-4.943v.4zm19.437 9.204c-.668.294-1.216.922-1.403 1.59-.2.734-.16 2.938.067 3.713.334 1.122 1.176 1.657 2.632 1.657 1.456-.014 2.297-.588 2.631-1.804.187-.668.187-2.912.014-3.567-.308-1.108-1.363-1.843-2.672-1.843-.427 0-.962.107-1.27.254zm2.284.882c.601.387.775.948.775 2.47 0 1.938-.4 2.633-1.563 2.766-.721.08-1.336-.2-1.696-.788-.522-.855-.455-3.353.106-4.114.481-.642 1.657-.815 2.378-.334zm-34.813 2.457c0 3.033.027 3.474.214 3.54.307.12 2.004.094 2.979-.053 1.029-.147 1.443-.414 1.857-1.202.254-.521.294-.788.294-2.285 0-1.496-.04-1.75-.308-2.27-.507-.976-1.095-1.19-3.259-1.19h-1.777v3.46zm3.714-2.297c.548.414.721 1.095.668 2.645-.094 2.03-.4 2.338-2.391 2.338h-1.056v-5.37l1.203.053c.935.04 1.282.12 1.576.334zm3.233 2.31v3.46l2.217.04c1.216.028 2.271 0 2.352-.04.066-.053.106-.226.08-.4-.04-.32-.054-.32-1.87-.36l-1.844-.04v-2.245l1.71-.04 1.696-.04v-.668l-1.67-.067-1.67-.067-.04-1.108-.04-1.096h3.62v-.801h-4.541v3.473zm5.477-3.339c0 .12 2.258 6.72 2.324 6.786.107.094.976.134 1.11.054.173-.107 2.444-6.44 2.444-6.786 0-.12-.16-.187-.454-.187h-.441l-.975 2.805c-.548 1.55-1.016 2.805-1.056 2.805-.04 0-.4-.948-.801-2.11-1.283-3.74-1.176-3.5-1.697-3.5-.254 0-.454.053-.454.133zm7.174-.04c-.174.16-.107 6.653.066 6.826.107.107.802.16 2.258.16 2.204 0 2.471-.066 2.364-.627-.04-.214-.24-.24-1.883-.28l-1.83-.04v-2.258h3.34v-.788l-1.63-.04-1.643-.04-.04-1.11-.04-1.095h3.62v-.801h-2.245c-1.242 0-2.297.04-2.337.093zm6.145-.013c-.054.053-.094 1.616-.094 3.473v3.366l.307.08c.16.04 1.15.08 2.178.08 2.017 0 2.31-.093 2.124-.667-.08-.254-.187-.267-1.803-.267h-1.737l-.027-3.046-.04-3.033-.4-.04c-.228-.026-.455 0-.508.054zm12.423.013c-.053.04-.093 1.603-.093 3.46v3.393l.334.08c.6.147.734-.12.734-1.496V24.18h1.243c2.084-.013 2.899-.614 2.899-2.15 0-.561-.08-.869-.308-1.203-.507-.774-.988-.921-2.978-.921-.962 0-1.79.04-1.83.093zm3.447.909c.788.32.975 1.269.374 1.936-.36.375-.428.388-1.51.401-.628.014-1.215.014-1.295.014-.134-.014-.174-.348-.174-1.19 0-.654.04-1.228.093-1.268.16-.174 2.044-.094 2.512.107z" fill="#fff"/></svg>