<svg width="83" height="25" fill="none" xmlns="http://www.w3.org/2000/svg"><g clip-path="url(#clip0)" fill="#fff"><path d="M38.936 10.976c0 .44.078.863.235 1.266a3.474 3.474 0 001.732 1.813c.385.164.788.246 1.21.246v2.229a5.093 5.093 0 01-2.671-.737 5.445 5.445 0 01-1.913-2.04 5.508 5.508 0 01-.722-2.777V0h2.13v5.403h3.175v2.248h-3.176v3.325zM52.03 7.83c.445.187.726.401.966.727l-2.34 1.953v1.369c0 .332.39.51.64.294l4.599-3.987c-.507-.795-1.64-1.647-2.456-2.107a5.32 5.32 0 00-2.652-.689 5.4 5.4 0 00-2.746.727 5.523 5.523 0 00-2.022 2.012 5.464 5.464 0 00-.724 2.757c0 .993.247 1.925.742 2.794a5.778 5.778 0 002.004 2.086 5.26 5.26 0 002.746.764h5.473v-2.217h-5.473c-.446 0-.866-.08-1.262-.242a3.17 3.17 0 01-1.057-.708 3.191 3.191 0 01-.705-1.117 3.74 3.74 0 01-.26-1.36c0-.447.08-.87.241-1.267.173-.398.414-.751.724-1.062a3.18 3.18 0 011.057-.708 3.1 3.1 0 011.262-.26c.457 0 .871.08 1.243.242zm17.316 6.483v2.217h-5.594a5.203 5.203 0 01-2.676-.82 5.725 5.725 0 01-1.97-2.067 5.523 5.523 0 01-.724-2.757c0-.994.241-1.913.724-2.757a5.572 5.572 0 012.007-2.012 5.423 5.423 0 012.75-.727c.992 0 1.909.249 2.751.745a5.424 5.424 0 012.007 1.994 5.39 5.39 0 01.725 2.757h-2.193a3.1 3.1 0 00-.26-1.249 3.14 3.14 0 00-.706-1.08 3.131 3.131 0 00-1.078-.708 3.068 3.068 0 00-1.245-.26c-.867 0-1.642.322-2.323.968-.31.31-.545.67-.706 1.08a3.291 3.291 0 00-.242 1.249c0 .447.08.9.242 1.36.173.447.408.82.706 1.117.669.633 1.443.95 2.323.95h5.482zm13.086 2.198h-2.2v-5.686a3.16 3.16 0 00-.261-1.266 3.236 3.236 0 00-.708-1.077 3.185 3.185 0 00-1.064-.718A3.048 3.048 0 0076.95 7.5c-.434 0-.851.088-1.25.264a3.19 3.19 0 00-1.062.718 3.488 3.488 0 00-.727 1.077 3.372 3.372 0 00-.243 1.266v5.705h-2.2V0h2.2v6.366c.995-.73 2.089-1.095 3.282-1.095.995 0 1.909.245 2.741.736a5.477 5.477 0 012.014 2.022c.485.844.727 1.776.727 2.796v5.686zm-45.625 5.413c0-.548.145-1.04.437-1.475a2.971 2.971 0 011.187-1.033 3.783 3.783 0 011.682-.37c.722 0 1.352.147 1.89.443.54.296.932.715 1.179 1.258h-1.036a1.88 1.88 0 00-.798-.782c-.342-.183-.754-.274-1.235-.274-.462 0-.877.091-1.245.274a2.084 2.084 0 00-.864.782c-.21.333-.314.726-.314 1.177 0 .447.105.839.314 1.178.209.333.497.591.864.774.368.183.783.274 1.245.274.481 0 .893-.089 1.235-.266.349-.183.615-.444.798-.782h1.036c-.247.537-.64.954-1.178 1.25-.538.29-1.169.435-1.89.435a3.854 3.854 0 01-1.683-.363 2.99 2.99 0 01-1.187-1.024 2.593 2.593 0 01-.437-1.476zm9.6-2.806v3.556c0 .5.143.871.428 1.113.291.242.693.363 1.206.363.507 0 .903-.121 1.188-.363.291-.242.437-.613.437-1.113v-3.556h.865v3.548c0 .468-.111.863-.333 1.186a1.997 1.997 0 01-.902.71 3.254 3.254 0 01-1.264.233c-.469 0-.893-.078-1.273-.234a2.005 2.005 0 01-.893-.71c-.216-.322-.323-.717-.323-1.185v-3.548h.864zm7.523 5.024h2.319v.597h-3.183v-5.621h.864v5.024zm8.406-5.024v.597H60.53v5.024h-.864v-5.024H57.85v-.597h4.485zm3.002 0v3.556c0 .5.143.871.428 1.113.29.242.693.363 1.206.363.507 0 .903-.121 1.188-.363.291-.242.437-.613.437-1.113v-3.556h.865v3.548c0 .468-.111.863-.333 1.186a2 2 0 01-.903.71 3.255 3.255 0 01-1.263.233c-.47 0-.893-.078-1.273-.234a2.005 2.005 0 01-.894-.71c-.215-.322-.323-.717-.323-1.185v-3.548h.865zm10.145 5.621l-1.577-2.299h-1.045v2.299h-.864v-5.621h2.138c.5 0 .921.073 1.263.218.348.145.608.341.779.588.171.248.256.53.256.847 0 .387-.132.729-.399 1.024-.259.296-.652.492-1.178.589l1.663 2.355h-1.036zm-2.622-2.887h1.273c.469 0 .82-.097 1.055-.29a.985.985 0 00.352-.79c0-.334-.118-.592-.352-.775-.228-.183-.58-.274-1.054-.274H72.86v2.129zm6.873-2.137v1.879h2.413v.604h-2.413v1.936h2.698v.605H78.87V19.11h3.562v.605h-2.698zM0 9.378a.253.253 0 01.16-.234.776.776 0 01.235-.06c1.654-.074 3.308-.134 4.962-.209 1.269-.056 2.537-.132 3.805-.192.469-.023.65.17.637.652 0 .05-.005.1-.005.149-.01 2.321-.045 4.643-.02 6.965.017 1.642.115 3.284.18 4.926.032.804.074 1.608.108 2.413.012.28-.098.466-.293.533a.536.536 0 01-.677-.363c-.021-.174-.044-.35-.052-.525-.032-.762-.056-1.52-.087-2.28-.019-.434-.045-.868-.066-1.302-.021-.423-.045-.845-.065-1.268-.024-.533-.05-1.066-.065-1.6-.026-.886-.044-1.772-.065-2.659-.01-.401-.038-.803-.033-1.204.01-.931.036-1.862.047-2.793a.697.697 0 00-.079-.33c-.08-.148-.21-.242-.394-.232-.704.036-1.409.068-2.114.102-.103.005-.205.014-.308.018l-2.52.092c-.955.035-1.908.076-2.863.1a.756.756 0 01-.264-.058.252.252 0 01-.163-.235L0 9.378zm25.837.453c-.017.168-.124.216-.27.212l-2.26-.063-.033-.002-4.813-.21c-.189-.01-.351.037-.448.198a.728.728 0 00-.097.353c0 .612.032 1.225.025 1.836-.023 1.854-.038 3.708-.097 5.558-.05 1.565-.156 3.127-.236 4.691-.026.5-.047 1.002-.076 1.503-.012.213-.155.34-.335.402a.491.491 0 01-.488-.083c-.147-.118-.155-.281-.149-.447.122-3.355.335-6.707.336-10.067 0-1.478-.04-2.956-.065-4.433-.005-.317.084-.488.317-.567a.574.574 0 01.207-.03c1.183.058 2.364.12 3.546.176 1.274.06 2.548.116 3.822.17.25.01.5.008.75.028.158.012.334.026.364.246v.53zM20.2 0c.09.117.207.221.263.353.107.252-.093.553-.364.581a2.083 2.083 0 01-.228.005C16.573.916 13.275.88 9.977.875 8.687.873 7.396.934 6.106.97 5.8.978 5.606.866 5.52.612c-.065-.2.04-.416.28-.574A.162.162 0 005.832 0H20.2z"/><path d="M25.837 14.192c0 .04-.012.413-.037.445-.052.066-.33.073-.419.074-1.058.02-1.92.052-2.979.058a.58.58 0 00-.599.59c-.022.656-.037 1.313-.07 1.967a698.593 698.593 0 01-.25 4.625c-.017.309-.244.513-.53.503a.411.411 0 01-.415-.435c.005-.214.032-.428.043-.643l.326-7.007c.011-.145.051-.287.119-.416.07-.138.206-.195.367-.196 1.373-.014 2.583-.031 3.956-.042.124 0 .428.003.478.155M13.741 24.918a.758.758 0 01-.658.014l-.03-.014c-.083 0-.152-.199-.152-.283-.017-5.589-.032-11.178-.046-16.767-.002-.894.023-1.787.034-2.681.003-.23-.013-.25-.242-.24-1.877.076-3.752.15-5.63.236-1.584.071-3.167.156-4.75.232-.27.013-.395-.095-.497-.331-.102-.236.132-.615.38-.624.32-.013.64-.037.96-.05.802-.03 1.605-.05 2.408-.087.813-.036 1.625-.091 2.437-.128 1.105-.05 2.21-.105 3.316-.133 1.15-.03 2.301-.04 3.451-.038.722 0 1.443.037 2.164.063.457.017.912.038 1.365.064 1.369.078 2.74.162 4.11.236.428.023.858.017 1.286.029.364.01.622.328.532.648-.061.217-.233.344-.483.333-.793-.033-1.584-.075-2.376-.113a5454.94 5454.94 0 00-6.995-.331c-.422-.02-.402-.074-.4.397.016 3.387.043 6.775.038 10.163-.005 3.034-.045 6.068-.07 9.103v.02c-.003.083-.07.282-.152.282zM3.115 13.777c.852 0 1.704-.002 2.556 0 .311 0 .512.196.525.52.022.535.02 1.07.047 1.605.109 2.115.222 4.23.34 6.345.01.193.013.386.023.58.01.205-.074.363-.26.432-.186.07-.39.055-.523-.112a.73.73 0 01-.165-.376c-.059-.89-.098-1.782-.147-2.674-.042-.781-.09-1.562-.13-2.343-.04-.798-.075-1.597-.11-2.395-.014-.318-.21-.534-.527-.55-.317-.015-.641-.014-.961-.02-1.102-.022-2.4-.043-3.501-.064-.303-.006-.286-.193-.295-.49-.008-.266.007-.462.315-.464.874-.007 1.939.006 2.813.006z"/></g><defs><clipPath id="clip0"><path fill="#fff" d="M0 0h82.432v25H0z"/></clipPath></defs></svg>